<?xml version="1.0" encoding="utf-8"?>
<!-- Generator: Adobe Illustrator 19.1.0, SVG Export Plug-In . SVG Version: 6.00 Build 0)  -->
<svg version="1.1" id="Layer_1" xmlns="http://www.w3.org/2000/svg" xmlns:xlink="http://www.w3.org/1999/xlink" x="0px" y="0px"
	 viewBox="0 0 206 301.8" style="enable-background:new 0 0 206 301.8;" xml:space="preserve">
<style type="text/css">
	.st0{clip-path:url(#SVGID_2_);fill:url(#SVGID_3_);}
	.st1{clip-path:url(#SVGID_5_);fill:url(#SVGID_6_);}
	.st2{clip-path:url(#SVGID_8_);fill:url(#SVGID_9_);}
	.st3{clip-path:url(#SVGID_11_);fill:url(#SVGID_12_);}
	.st4{opacity:0.45;}
	.st5{clip-path:url(#SVGID_14_);fill:#FFFFFF;}
	.st6{opacity:0.67;}
	.st7{clip-path:url(#SVGID_16_);fill:#AA2D0C;}
	.st8{fill:#0068C9;}
	.st9{fill:#FFFFFF;}
	.st10{fill:#FF341C;}
	.st11{opacity:0.69;}
	.st12{clip-path:url(#SVGID_18_);}
	.st13{clip-path:url(#SVGID_20_);fill:url(#SVGID_21_);}
	.st14{fill:#7E2700;}
</style>
<g>
	<g>
		<defs>
			<path id="SVGID_1_" d="M83.8,73.3c-19.5,0-35.4,15.9-35.4,35.4v19.6H66v-19.6c0-9.8,8-17.8,17.8-17.8h38.5
				c9.8,0,17.8,8,17.8,17.8v19.6h17.6v-19.6c0-19.5-15.9-35.4-35.4-35.4H83.8z"/>
		</defs>
		<clipPath id="SVGID_2_">
			<use xlink:href="#SVGID_1_"  style="overflow:visible;"/>
		</clipPath>
		
			<linearGradient id="SVGID_3_" gradientUnits="userSpaceOnUse" x1="-57.8792" y1="425.2331" x2="-46.1884" y2="425.2331" gradientTransform="matrix(9.3515 0 0 -9.3515 589.5898 4077.4102)">
			<stop  offset="0" style="stop-color:#A63F00"/>
			<stop  offset="1" style="stop-color:#E28130"/>
		</linearGradient>
		<rect x="48.3" y="73.3" class="st0" width="109.3" height="55.1"/>
	</g>
	<g>
		<defs>
			<path id="SVGID_4_" d="M10.3,198.3c0,51.2,41.5,92.7,92.7,92.7c51.2,0,92.7-41.5,92.7-92.7c0-51.2-41.5-92.7-92.7-92.7
				C51.8,105.6,10.3,147.1,10.3,198.3"/>
		</defs>
		<clipPath id="SVGID_5_">
			<use xlink:href="#SVGID_4_"  style="overflow:visible;"/>
		</clipPath>
		
			<linearGradient id="SVGID_6_" gradientUnits="userSpaceOnUse" x1="-86.7171" y1="445.9153" x2="-75.0269" y2="445.9153" gradientTransform="matrix(-8.3142 -8.3142 -8.3142 8.3142 3133.4136 -4186.127)">
			<stop  offset="0" style="stop-color:#A63F00"/>
			<stop  offset="1" style="stop-color:#E28130"/>
		</linearGradient>
		<polygon class="st1" points="103,383.8 -82.5,198.3 103,12.9 288.5,198.3 		"/>
	</g>
	<g>
		<defs>
			<path id="SVGID_7_" d="M14.9,198.3c0,48.6,39.4,88,88.1,88c48.6,0,88-39.4,88-88c0-48.6-39.4-88.1-88-88.1
				C54.4,110.3,14.9,149.7,14.9,198.3"/>
		</defs>
		<clipPath id="SVGID_8_">
			<use xlink:href="#SVGID_7_"  style="overflow:visible;"/>
		</clipPath>
		
			<linearGradient id="SVGID_9_" gradientUnits="userSpaceOnUse" x1="-52.0067" y1="432.9325" x2="-40.3165" y2="432.9325" gradientTransform="matrix(10.0624 10.0624 10.0624 -10.0624 -3780.7378 5027.2822)">
			<stop  offset="0" style="stop-color:#A63F00"/>
			<stop  offset="1" style="stop-color:#E28130"/>
		</linearGradient>
		<polygon class="st2" points="103,22.2 279.1,198.3 103,374.4 -73.1,198.3 		"/>
	</g>
	<g>
		<defs>
			<path id="SVGID_10_" d="M27.9,198.3c0,41.5,33.6,75.1,75.1,75.1c41.5,0,75.1-33.6,75.1-75.1c0-41.5-33.6-75.1-75.1-75.1
				C61.5,123.2,27.9,156.9,27.9,198.3"/>
		</defs>
		<clipPath id="SVGID_11_">
			<use xlink:href="#SVGID_10_"  style="overflow:visible;"/>
		</clipPath>
		
			<linearGradient id="SVGID_12_" gradientUnits="userSpaceOnUse" x1="-78.4855" y1="442.614" x2="-66.7954" y2="442.614" gradientTransform="matrix(-15.524 -15.524 -15.524 15.524 5846.9546 -7800.022)">
			<stop  offset="0" style="stop-color:#A63F00"/>
			<stop  offset="1" style="stop-color:#E28130"/>
		</linearGradient>
		<polygon class="st3" points="103,348.5 -47.2,198.3 103,48.2 253.1,198.3 		"/>
	</g>
	<g class="st4">
		<g>
			<defs>
				<rect id="SVGID_13_" x="27.9" y="123.2" width="130.5" height="130.5"/>
			</defs>
			<clipPath id="SVGID_14_">
				<use xlink:href="#SVGID_13_"  style="overflow:visible;"/>
			</clipPath>
			<path class="st5" d="M32.9,203.3c0-41.5,33.6-75.1,75.1-75.1c19.5,0,37.1,7.5,50.5,19.6c-13.7-15.1-33.4-24.6-55.4-24.6
				c-41.5,0-75.1,33.6-75.1,75.1c0,22,9.5,41.7,24.6,55.4C40.4,240.4,32.9,222.8,32.9,203.3"/>
		</g>
	</g>
	<g class="st6">
		<g>
			<defs>
				<rect id="SVGID_15_" x="44.9" y="140.2" width="133.2" height="133.2"/>
			</defs>
			<clipPath id="SVGID_16_">
				<use xlink:href="#SVGID_15_"  style="overflow:visible;"/>
			</clipPath>
			<path class="st7" d="M150.5,140.2c10.6,13,20.5,33,20.5,51.1c0,41.5-33.6,75.1-75.1,75.1c-18,0-38.1-9.9-51.1-20.5
				c13.8,16.8,34.7,27.5,58.1,27.5c41.5,0,75.1-33.6,75.1-75.1C178.1,174.9,167.3,154,150.5,140.2"/>
		</g>
	</g>
	<path class="st8" d="M113,0L79.5,90.6c-1.7,4.7,1.8,9.7,6.8,9.7h7L130.3,0H113z"/>
	<polygon class="st9" points="130.3,0 93.3,100.4 110.6,100.4 147.7,0 	"/>
	<path class="st10" d="M147.7,0l-28.3,76.7l-8.7,23.6l0,0.1h12.3c1.7,0,3.3-0.6,4.5-1.7c1-0.8,1.8-1.8,2.2-3.1L165,0H147.7z"/>
	<g class="st11">
		<g>
			<defs>
				<rect id="SVGID_17_" x="79" y="0.4" width="59.8" height="100"/>
			</defs>
			<clipPath id="SVGID_18_">
				<use xlink:href="#SVGID_17_"  style="overflow:visible;"/>
			</clipPath>
			<g class="st12">
				<defs>
					<path id="SVGID_19_" d="M138.9,70.9l-9.2,24.8c-0.5,1.3-1.3,2.3-2.2,3.1c-1.3,1.1-2.8,1.7-4.5,1.7H86.3c-5,0-8.5-5-6.8-9.7
						l33.3-90.3L138.9,70.9z"/>
				</defs>
				<clipPath id="SVGID_20_">
					<use xlink:href="#SVGID_19_"  style="overflow:visible;"/>
				</clipPath>
				
					<linearGradient id="SVGID_21_" gradientUnits="userSpaceOnUse" x1="-105.9464" y1="509.6485" x2="-94.2562" y2="509.6485" gradientTransform="matrix(-1.4879 0.7227 0.7227 1.4879 -403.9443 -638.0092)">
					<stop  offset="0" style="stop-color:#FFFFFF"/>
					<stop  offset="1" style="stop-color:#02183C"/>
				</linearGradient>
				<polygon class="st13" points="178.2,81.3 89.4,124.4 38.5,19.5 127.2,-23.7 				"/>
			</g>
		</g>
	</g>
	<path class="st8" d="M91,0H73.7l37,100.2l0,0.1h12.2c1.7,0,3.3-0.6,4.5-1.7l-8.1-22L91,0z"/>
	<polygon class="st9" points="56.3,0 93.4,100.4 110.7,100.4 73.7,0 	"/>
	<path class="st10" d="M39,0l35.3,95.7c1.1,2.8,3.8,4.7,6.8,4.7h12.3L56.3,0H39z"/>
	<path class="st14" d="M132.1,210.7c0,15-12.4,25.5-31.7,25.5c-11.4,0-23.2-3.8-30.7-9.6l8.2-15.7c6.1,6.3,13.5,9.7,20.9,9.7
		c8.6,0,13.4-3.6,13.4-9.7c0-6.2-4.8-9.5-13.5-9.5H85.6v-10.9l18.3-17.5H73.8l-0.1-15.7h54.6v11.8l-21.1,19.6l3.9,0.5
		C123.4,191.2,132.1,198.8,132.1,210.7"/>
</g>
</svg>
