<?xml version="1.0" encoding="utf-8"?>
<!-- Generator: Adobe Illustrator 19.1.0, SVG Export Plug-In . SVG Version: 6.00 Build 0)  -->
<svg version="1.1" id="Layer_1" xmlns="http://www.w3.org/2000/svg" xmlns:xlink="http://www.w3.org/1999/xlink" x="0px" y="0px"
	 viewBox="0 0 83.9 24.7" style="enable-background:new 0 0 83.9 24.7;" xml:space="preserve">
<style type="text/css">
	.st0{clip-path:url(#SVGID_2_);fill:url(#SVGID_3_);}
	.st1{clip-path:url(#SVGID_5_);fill:url(#SVGID_6_);}
	.st2{fill:#FFFFFF;}
</style>
<g>
	<defs>
		<path id="SVGID_1_" d="M12.3,0C5.5,0,0,5.5,0,12.3c0,6.8,5.5,12.3,12.3,12.3h59.3c6.8,0,12.3-5.5,12.3-12.3
			C83.9,5.5,78.4,0,71.6,0H12.3z"/>
	</defs>
	<clipPath id="SVGID_2_">
		<use xlink:href="#SVGID_1_"  style="overflow:visible;"/>
	</clipPath>
	
		<linearGradient id="SVGID_3_" gradientUnits="userSpaceOnUse" x1="0" y1="24.6748" x2="1" y2="24.6748" gradientTransform="matrix(0 23.9631 23.9631 0 -549.321 0.3773)">
		<stop  offset="0" style="stop-color:#08E1F4"/>
		<stop  offset="1" style="stop-color:#0051E3"/>
		<stop  offset="1" style="stop-color:#0051E3"/>
	</linearGradient>
	<rect x="0" y="0" class="st0" width="83.9" height="24.7"/>
</g>
<g>
	<defs>
		<path id="SVGID_4_" d="M12.3,2C6.6,2,2,6.6,2,12.3C2,18,6.6,22.7,12.3,22.7h59.3c5.7,0,10.3-4.6,10.3-10.3C81.9,6.6,77.3,2,71.6,2
			H12.3z"/>
	</defs>
	<clipPath id="SVGID_5_">
		<use xlink:href="#SVGID_4_"  style="overflow:visible;"/>
	</clipPath>
	
		<linearGradient id="SVGID_6_" gradientUnits="userSpaceOnUse" x1="0" y1="24.6748" x2="1" y2="24.6748" gradientTransform="matrix(0 20.0779 20.0779 0 -453.4542 2.3164)">
		<stop  offset="0" style="stop-color:#0051E3"/>
		<stop  offset="1.800000e-005" style="stop-color:#0051E3"/>
		<stop  offset="1" style="stop-color:#08E1F4"/>
	</linearGradient>
	<rect x="2" y="2" class="st1" width="79.9" height="20.7"/>
</g>
<g>
	<path class="st2" d="M15.7,9.5h1.2l1.6,4.4l1.7-4.4h1.1L19,15.1h-1.1L15.7,9.5z"/>
	<path class="st2" d="M22.9,9.5h4.1v0.9h-3v1.4h2.7v0.9H24v1.4h3.1v0.9h-4.2V9.5z"/>
	<path class="st2" d="M32.7,15.1l-1-1.7c0,0-0.1,0-0.2,0h-1.3v1.6h-1.1V9.5h2.3c0.7,0,1.3,0.2,1.7,0.5c0.4,0.3,0.6,0.8,0.6,1.4
		c0,0.4-0.1,0.8-0.3,1.1c-0.2,0.3-0.5,0.5-0.8,0.7l1.2,1.9H32.7z M30.3,12.5h1.3c0.4,0,0.7-0.1,0.9-0.3c0.2-0.2,0.3-0.4,0.3-0.8
		c0-0.3-0.1-0.6-0.3-0.8c-0.2-0.2-0.5-0.3-0.9-0.3h-1.3V12.5z"/>
	<path class="st2" d="M36,9.5h1.1v5.6H36V9.5z"/>
	<path class="st2" d="M39.5,9.5h3.9l0,0.9h-2.8V12h2.5v0.9h-2.5v2.2h-1.1V9.5z"/>
	<path class="st2" d="M45.2,9.5h1.1v5.6h-1.1V9.5z"/>
	<path class="st2" d="M52,10.6c-0.3-0.1-0.5-0.2-0.8-0.2c-0.3,0-0.7,0.1-1,0.2c-0.3,0.2-0.5,0.4-0.7,0.7c-0.2,0.3-0.2,0.6-0.2,1
		c0,0.3,0.1,0.7,0.2,1c0.2,0.3,0.4,0.5,0.7,0.7s0.6,0.3,1,0.3c0.3,0,0.5-0.1,0.8-0.2c0.3-0.1,0.5-0.3,0.7-0.5l0.6,0.7
		c-0.3,0.3-0.6,0.5-1,0.7c-0.4,0.2-0.8,0.3-1.2,0.3c-0.5,0-1-0.1-1.5-0.4s-0.8-0.6-1.1-1c-0.3-0.4-0.4-0.9-0.4-1.5
		c0-0.5,0.1-1,0.4-1.5c0.3-0.4,0.6-0.8,1.1-1c0.5-0.3,1-0.4,1.5-0.4c0.4,0,0.8,0.1,1.2,0.2c0.4,0.2,0.7,0.4,1,0.7l-0.6,0.8
		C52.5,10.9,52.2,10.7,52,10.6z"/>
	<path class="st2" d="M59.3,15.1l-0.5-1.2h-2.7l-0.5,1.2h-1.1L57,9.5h1.1l2.4,5.6H59.3z M56.5,13h2l-1-2.4L56.5,13z"/>
	<path class="st2" d="M65.7,15.1l-1-1.7c0,0-0.1,0-0.2,0h-1.3v1.6h-1.1V9.5h2.3c0.7,0,1.3,0.2,1.7,0.5c0.4,0.3,0.6,0.8,0.6,1.4
		c0,0.4-0.1,0.8-0.3,1.1s-0.5,0.5-0.8,0.7l1.2,1.9H65.7z M63.3,12.5h1.3c0.4,0,0.7-0.1,0.9-0.3c0.2-0.2,0.3-0.4,0.3-0.8
		c0-0.3-0.1-0.6-0.3-0.8c-0.2-0.2-0.5-0.3-0.9-0.3h-1.3V12.5z"/>
</g>
</svg>
