<?xml version="1.0" encoding="utf-8"?>
<!-- Generator: Adobe Illustrator 19.1.0, SVG Export Plug-In . SVG Version: 6.00 Build 0)  -->
<svg version="1.1" id="Layer_1" xmlns="http://www.w3.org/2000/svg" xmlns:xlink="http://www.w3.org/1999/xlink" x="0px" y="0px"
	 viewBox="0 0 83.9 24.7" style="enable-background:new 0 0 83.9 24.7;" xml:space="preserve">
<style type="text/css">
	.st0{clip-path:url(#SVGID_2_);fill:url(#SVGID_3_);}
	.st1{clip-path:url(#SVGID_5_);fill:url(#SVGID_6_);}
	.st2{fill:#FFFFFF;}
</style>
<g>
	<defs>
		<path id="SVGID_1_" d="M12.3,0C5.5,0,0,5.5,0,12.3c0,6.8,5.5,12.3,12.3,12.3h59.3c6.8,0,12.3-5.5,12.3-12.3
			C83.9,5.5,78.4,0,71.6,0H12.3z"/>
	</defs>
	<clipPath id="SVGID_2_">
		<use xlink:href="#SVGID_1_"  style="overflow:visible;"/>
	</clipPath>
	
		<linearGradient id="SVGID_3_" gradientUnits="userSpaceOnUse" x1="0" y1="24.6748" x2="1" y2="24.6748" gradientTransform="matrix(0 23.9631 23.9631 0 -549.321 0.3773)">
		<stop  offset="0" style="stop-color:#08E1F4"/>
		<stop  offset="1" style="stop-color:#0051E3"/>
		<stop  offset="1" style="stop-color:#0051E3"/>
	</linearGradient>
	<rect x="0" y="0" class="st0" width="83.9" height="24.7"/>
</g>
<g>
	<defs>
		<path id="SVGID_4_" d="M12.3,2C6.6,2,2,6.6,2,12.3C2,18,6.6,22.7,12.3,22.7h59.3c5.7,0,10.3-4.6,10.3-10.3C81.9,6.6,77.3,2,71.6,2
			H12.3z"/>
	</defs>
	<clipPath id="SVGID_5_">
		<use xlink:href="#SVGID_4_"  style="overflow:visible;"/>
	</clipPath>
	
		<linearGradient id="SVGID_6_" gradientUnits="userSpaceOnUse" x1="0" y1="24.6748" x2="1" y2="24.6748" gradientTransform="matrix(0 20.0779 20.0779 0 -453.4542 2.3164)">
		<stop  offset="0" style="stop-color:#0051E3"/>
		<stop  offset="1.800000e-005" style="stop-color:#0051E3"/>
		<stop  offset="1" style="stop-color:#08E1F4"/>
	</linearGradient>
	<rect x="2" y="2" class="st1" width="79.9" height="20.7"/>
</g>
<g>
	<path class="st2" d="M31.5,10.1l-0.4,0.8c-0.6-0.4-1.2-0.5-1.6-0.5c-0.6,0-0.9,0.2-0.9,0.6c0,1.2,3,0.6,3,2.6c0,1-0.9,1.6-2.1,1.6
		c-0.9,0-1.7-0.4-2.3-0.9l0.4-0.8c0.6,0.5,1.3,0.8,1.9,0.8c0.7,0,1-0.2,1-0.7c0-1.2-3-0.6-3-2.5c0-1,0.8-1.6,2-1.6
		C30.3,9.5,31,9.7,31.5,10.1z"/>
	<path class="st2" d="M35.7,10.4v4.7h-0.9v-4.7H33V9.5h4.5v0.8H35.7z"/>
	<path class="st2" d="M39.9,13.9l-0.5,1.3h-1l2.5-5.6h1l2.4,5.6h-1l-0.5-1.3H39.9z M41.3,10.6L40.3,13h2.1L41.3,10.6z"/>
	<path class="st2" d="M48.7,13.4c-0.1,0-0.2,0-0.3,0h-1.3v1.7h-0.9V9.5h2.3c1.4,0,2.3,0.7,2.3,1.9c0,0.9-0.4,1.5-1.2,1.8l1.3,1.9
		h-1.1L48.7,13.4z M48.4,12.6c0.9,0,1.4-0.4,1.4-1.1c0-0.7-0.5-1.1-1.4-1.1h-1.3v2.2H48.4z"/>
	<path class="st2" d="M55,10.4v4.7H54v-4.7h-1.8V9.5h4.5v0.8H55z"/>
</g>
</svg>
