<?xml version="1.0" encoding="utf-8"?>
<!-- Generator: Adobe Illustrator 19.1.0, SVG Export Plug-In . SVG Version: 6.00 Build 0)  -->
<svg version="1.1" id="Layer_1" xmlns="http://www.w3.org/2000/svg" xmlns:xlink="http://www.w3.org/1999/xlink" x="0px" y="0px"
	 viewBox="-437 268.3 83.9 24.7" style="enable-background:new -437 268.3 83.9 24.7;" xml:space="preserve">
<style type="text/css">
	.st0{clip-path:url(#SVGID_2_);fill:url(#SVGID_3_);}
	.st1{clip-path:url(#SVGID_5_);fill:url(#SVGID_6_);}
	.st2{fill:#FFFFFF;}
</style>
<g>
	<g>
		<defs>
			<path id="SVGID_1_" d="M-424.7,268.3c-6.8,0-12.3,5.5-12.3,12.3c0,6.8,5.5,12.3,12.3,12.3h59.3c6.8,0,12.3-5.5,12.3-12.3
				c0-6.8-5.5-12.3-12.3-12.3H-424.7z"/>
		</defs>
		<clipPath id="SVGID_2_">
			<use xlink:href="#SVGID_1_"  style="overflow:visible;"/>
		</clipPath>
		
			<linearGradient id="SVGID_3_" gradientUnits="userSpaceOnUse" x1="-862.8578" y1="518.3894" x2="-861.8578" y2="518.3894" gradientTransform="matrix(0 23.9631 -23.9631 0 12027.167 20945.4277)">
			<stop  offset="0" style="stop-color:#08E1F4"/>
			<stop  offset="1" style="stop-color:#0051E3"/>
			<stop  offset="1" style="stop-color:#0051E3"/>
		</linearGradient>
		<rect x="-437" y="268.3" class="st0" width="83.9" height="24.7"/>
	</g>
</g>
<g>
	<g>
		<defs>
			<path id="SVGID_4_" d="M-424.7,270.3c-5.7,0-10.3,4.6-10.3,10.3c0,5.7,4.6,10.4,10.3,10.4h59.3c5.7,0,10.3-4.6,10.3-10.3
				c0-5.8-4.6-10.4-10.3-10.4H-424.7z"/>
		</defs>
		<clipPath id="SVGID_5_">
			<use xlink:href="#SVGID_4_"  style="overflow:visible;"/>
		</clipPath>
		
			<linearGradient id="SVGID_6_" gradientUnits="userSpaceOnUse" x1="-860.7018" y1="514.8607" x2="-859.7018" y2="514.8607" gradientTransform="matrix(0 20.0779 -20.0779 0 9942.2705 17551.7012)">
			<stop  offset="0" style="stop-color:#0051E3"/>
			<stop  offset="1.800000e-005" style="stop-color:#0051E3"/>
			<stop  offset="1" style="stop-color:#08E1F4"/>
		</linearGradient>
		<rect x="-435" y="270.3" class="st1" width="79.9" height="20.7"/>
	</g>
</g>
<g>
	<path class="st2" d="M-414.2,278.7l-0.5,0.7c-0.4-0.4-1-0.7-1.5-0.7c-1.1,0-2,0.9-2,2c0,1.1,0.9,2,2,2c0.6,0,1.1-0.3,1.5-0.7
		l0.6,0.6c-0.6,0.6-1.4,0.9-2.2,0.9c-1.6,0-2.9-1.2-2.9-2.8c0-1.6,1.3-2.8,2.9-2.8C-415.5,277.8-414.7,278.1-414.2,278.7z"/>
	<path class="st2" d="M-407.9,280.6c0,1.6-1.3,2.8-2.9,2.8c-1.7,0-2.9-1.2-2.9-2.8c0-1.6,1.3-2.8,2.9-2.8
		C-409.2,277.8-407.9,279-407.9,280.6z M-412.8,280.6c0,1.1,0.9,2,2,2c1.1,0,2-0.9,2-2s-0.9-2-2-2
		C-411.9,278.6-412.8,279.5-412.8,280.6z"/>
	<path class="st2" d="M-403,283.4l-3-4v4h-0.9v-5.6h0.9l3,4v-4h0.9v5.6H-403z"/>
	<path class="st2" d="M-398.5,278.7v4.7h-0.9v-4.7h-1.8v-0.8h4.5v0.8H-398.5z"/>
	<path class="st2" d="M-396,283.4v-5.6h0.9v5.6H-396z"/>
	<path class="st2" d="M-389.7,283.4l-3-4v4h-0.9v-5.6h0.9l3,4v-4h0.9v5.6H-389.7z"/>
	<path class="st2" d="M-382.5,281.1c0,1.5-0.9,2.3-2.4,2.3s-2.4-0.9-2.4-2.3v-3.3h0.9v3.3c0,0.9,0.6,1.5,1.5,1.5
		c0.9,0,1.5-0.6,1.5-1.5v-3.3h0.9V281.1z"/>
	<path class="st2" d="M-380.6,282.1l-0.5,1.3h-1l2.5-5.6h1l2.4,5.6h-1l-0.5-1.3H-380.6z M-379.2,278.8l-1,2.5h2.1L-379.2,278.8z"/>
	<path class="st2" d="M-373,281.7c-0.1,0-0.2,0-0.3,0h-1.3v1.7h-0.9v-5.6h2.3c1.4,0,2.2,0.7,2.2,1.9c0,0.9-0.4,1.5-1.2,1.8l1.2,1.9
		h-1.1L-373,281.7z M-373.2,280.9c0.9,0,1.4-0.4,1.4-1.1c0-0.7-0.5-1.1-1.4-1.1h-1.3v2.2H-373.2z"/>
</g>
</svg>
