<?xml version="1.0" encoding="utf-8"?>
<!-- Generator: Adobe Illustrator 19.1.0, SVG Export Plug-In . SVG Version: 6.00 Build 0)  -->
<svg version="1.1" id="Layer_1" xmlns="http://www.w3.org/2000/svg" xmlns:xlink="http://www.w3.org/1999/xlink" x="0px" y="0px"
	 viewBox="-408 239.1 141.1 82.9" style="enable-background:new -408 239.1 141.1 82.9;" xml:space="preserve">
<style type="text/css">
	.st0{fill:#1067B2;}
</style>
<g>
	<path class="st0" d="M-357.3,260.3c-4.4,0-8-3.6-8-8c0-4.4,3.6-8,8-8c4.4,0,8,3.6,8,8C-349.3,256.7-352.9,260.3-357.3,260.3"/>
	<path class="st0" d="M-376.9,260.3c-4.4,0-8-3.6-8-8c0-4.4,3.6-8,8-8s8,3.6,8,8C-368.9,256.7-372.5,260.3-376.9,260.3"/>
	<path class="st0" d="M-378.7,279.9c-4.4,0-8-3.6-8-8c0-4.4,3.6-8,8-8c4.4,0,8,3.6,8,8C-370.7,276.3-374.3,279.9-378.7,279.9"/>
	<path class="st0" d="M-396.5,260.3c-4.4,0-8-3.6-8-8c0-4.4,3.6-8,8-8s8,3.6,8,8C-388.5,256.7-392.1,260.3-396.5,260.3"/>
	<path class="st0" d="M-278.9,260.3c-4.4,0-8-3.6-8-8c0-4.4,3.6-8,8-8s8,3.6,8,8C-270.8,256.7-274.4,260.3-278.9,260.3"/>
	<path class="st0" d="M-337.7,260.3c-4.4,0-8-3.6-8-8c0-4.4,3.6-8,8-8c4.4,0,8,3.6,8,8C-329.7,256.7-333.3,260.3-337.7,260.3"/>
	<path class="st0" d="M-338.6,279.9c-4.4,0-8-3.6-8-8c0-4.4,3.6-8,8-8s8,3.6,8,8C-330.6,276.3-334.2,279.9-338.6,279.9"/>
	<path class="st0" d="M-358.6,279.9c-4.4,0-8-3.6-8-8c0-4.4,3.6-8,8-8s8,3.6,8,8C-350.6,276.3-354.2,279.9-358.6,279.9"/>
	<path class="st0" d="M-318.1,260.3c-4.4,0-8-3.6-8-8c0-4.4,3.6-8,8-8s8,3.6,8,8C-310.1,256.7-313.7,260.3-318.1,260.3"/>
	<path class="st0" d="M-318.5,279.9c-4.4,0-8-3.6-8-8c0-4.4,3.6-8,8-8s8,3.6,8,8C-310.5,276.3-314.1,279.9-318.5,279.9"/>
	<path class="st0" d="M-298.5,260.3c-4.4,0-8-3.6-8-8c0-4.4,3.6-8,8-8s8,3.6,8,8C-290.4,256.7-294,260.3-298.5,260.3"/>
	<path class="st0" d="M-298.5,279.9c-4.4,0-8-3.6-8-8c0-4.4,3.6-8,8-8s8,3.6,8,8C-290.4,276.3-294,279.9-298.5,279.9"/>
	<path class="st0" d="M-337.7,299.5c-4.4,0-8-3.6-8-8c0-4.4,3.6-8,8-8c4.4,0,8,3.6,8,8S-333.3,299.5-337.7,299.5"/>
	<path class="st0" d="M-357.3,299.5c-4.4,0-8-3.6-8-8c0-4.4,3.6-8,8-8c4.4,0,8,3.6,8,8S-352.9,299.5-357.3,299.5"/>
	<path class="st0" d="M-337.7,319.1c-4.4,0-8-3.6-8-8s3.6-8,8-8c4.4,0,8,3.6,8,8S-333.3,319.1-337.7,319.1"/>
	<path class="st0" d="M-318.1,299.5c-4.4,0-8-3.6-8-8c0-4.4,3.6-8,8-8s8,3.6,8,8S-313.7,299.5-318.1,299.5"/>
</g>
</svg>
