<?xml version="1.0" encoding="utf-8"?>
<!-- Generator: Adobe Illustrator 19.1.0, SVG Export Plug-In . SVG Version: 6.00 Build 0)  -->
<svg version="1.1" id="Layer_1" xmlns="http://www.w3.org/2000/svg" xmlns:xlink="http://www.w3.org/1999/xlink" x="0px" y="0px"
	 viewBox="-378.9 210 82.9 141.1" style="enable-background:new -378.9 210 82.9 141.1;" xml:space="preserve">
<style type="text/css">
	.st0{fill:#1067B2;}
</style>
<g>
	<path class="st0" d="M-359.1,301.3c0,4.4-3.6,8-8,8s-8-3.6-8-8s3.6-8,8-8S-359.1,296.9-359.1,301.3"/>
	<path class="st0" d="M-359.1,320.9c0,4.4-3.6,8-8,8s-8-3.6-8-8s3.6-8,8-8S-359.1,316.5-359.1,320.9"/>
	<path class="st0" d="M-339.5,322.7c0,4.4-3.6,8-8,8c-4.4,0-8-3.6-8-8s3.6-8,8-8C-343.1,314.7-339.5,318.3-339.5,322.7"/>
	<path class="st0" d="M-359.1,340.5c0,4.4-3.6,8-8,8s-8-3.6-8-8c0-4.4,3.6-8,8-8S-359.1,336.1-359.1,340.5"/>
	<path class="st0" d="M-359.1,222.9c0,4.4-3.6,8-8,8s-8-3.6-8-8c0-4.4,3.6-8,8-8C-362.7,214.8-359.1,218.4-359.1,222.9"/>
	<path class="st0" d="M-359.1,281.7c0,4.4-3.6,8-8,8s-8-3.6-8-8s3.6-8,8-8S-359.1,277.3-359.1,281.7"/>
	<path class="st0" d="M-339.5,282.6c0,4.4-3.6,8-8,8c-4.4,0-8-3.6-8-8c0-4.4,3.6-8,8-8C-343.1,274.6-339.5,278.2-339.5,282.6"/>
	<path class="st0" d="M-339.5,302.6c0,4.4-3.6,8-8,8c-4.4,0-8-3.6-8-8c0-4.4,3.6-8,8-8C-343.1,294.6-339.5,298.2-339.5,302.6"/>
	<path class="st0" d="M-359.1,262.1c0,4.4-3.6,8-8,8s-8-3.6-8-8c0-4.4,3.6-8,8-8S-359.1,257.7-359.1,262.1"/>
	<path class="st0" d="M-339.5,262.5c0,4.4-3.6,8-8,8c-4.4,0-8-3.6-8-8c0-4.4,3.6-8,8-8C-343.1,254.5-339.5,258.1-339.5,262.5"/>
	<path class="st0" d="M-359.1,242.5c0,4.4-3.6,8-8,8s-8-3.6-8-8c0-4.4,3.6-8,8-8C-362.7,234.4-359.1,238-359.1,242.5"/>
	<path class="st0" d="M-339.5,242.5c0,4.4-3.6,8-8,8c-4.4,0-8-3.6-8-8c0-4.4,3.6-8,8-8C-343.1,234.4-339.5,238-339.5,242.5"/>
	<path class="st0" d="M-319.9,281.7c0,4.4-3.6,8-8,8c-4.4,0-8-3.6-8-8s3.6-8,8-8C-323.5,273.7-319.9,277.3-319.9,281.7"/>
	<path class="st0" d="M-319.9,301.3c0,4.4-3.6,8-8,8c-4.4,0-8-3.6-8-8s3.6-8,8-8C-323.5,293.3-319.9,296.9-319.9,301.3"/>
	<path class="st0" d="M-300.3,281.7c0,4.4-3.6,8-8,8s-8-3.6-8-8s3.6-8,8-8S-300.3,277.3-300.3,281.7"/>
	<path class="st0" d="M-319.9,262.1c0,4.4-3.6,8-8,8c-4.4,0-8-3.6-8-8c0-4.4,3.6-8,8-8C-323.5,254.1-319.9,257.7-319.9,262.1"/>
</g>
</svg>
