<?xml version="1.0" encoding="utf-8"?>
<!-- Generator: Adobe Illustrator 19.1.0, SVG Export Plug-In . SVG Version: 6.00 Build 0)  -->
<svg version="1.1" id="Layer_1" xmlns="http://www.w3.org/2000/svg" xmlns:xlink="http://www.w3.org/1999/xlink" x="0px" y="0px"
	 viewBox="0 0 1665.9 419.2" style="enable-background:new 0 0 1665.9 419.2;" xml:space="preserve">
<style type="text/css">
	.st0{fill:#1968B1;}
	.st1{clip-path:url(#SVGID_2_);fill:#FFFFFF;}
	.st2{clip-path:url(#SVGID_4_);fill:#FFFFFF;}
</style>
<polygon class="st0" points="1665.9,199.7 1633.2,199.7 1532.7,419.2 1565.3,419.2 1665.9,199.7 "/>
<g>
	<defs>
		<rect id="SVGID_1_" width="1054.7" height="198"/>
	</defs>
	<clipPath id="SVGID_2_">
		<use xlink:href="#SVGID_1_"  style="overflow:visible;"/>
	</clipPath>
	<path class="st1" d="M1014.5,153.8v-22.6h-7.8c-8.4,0-10.5-1.3-10.5-7.2V61.9h18.3V40.8h-18.3V10.1h-31.3v30.6h-15.6v21.1h15.6
		v60.6c0,23.4,5.6,31.9,31.6,31.9C999.7,154.4,1005.8,154,1014.5,153.8"/>
	<path class="st1" d="M834.7,153h31.6V86.4c0-14.8,9.5-23.7,24.2-23.7c13.6,0,18.2,7.2,18.2,22.4v67.8h31.6V76.4
		c0-25.8-12.9-38.7-38.9-38.7c-14.9,0-26.9,5.5-35.8,16.3V40.7h-30.9L834.7,153L834.7,153z"/>
	<rect x="783.8" y="1.1" class="st1" width="31.6" height="27.2"/>
	<rect x="783.8" y="40.8" class="st1" width="31.6" height="112.2"/>
	<path class="st1" d="M652,96.8c0,37.4,22.7,60,59.8,60c37.1,0,59.8-22.6,59.8-60c0-37.4-22.7-60-59.8-60
		C674.7,36.8,652,59.4,652,96.8 M684,96.8c0-22.4,10.2-34.6,27.8-34.6c17.6,0,27.6,12.3,27.6,34.6c0,22.4-10,34.8-27.6,34.8
		C694.2,131.6,684,119.1,684,96.8"/>
	<path class="st1" d="M527.7,198h30.7v-59c7.8,11.6,19.8,17.7,34.9,17.7c27.6,0,48.5-23.4,48.5-60.4S621.5,37,592.8,37
		c-15.3,0-26,5.9-35.1,19V40.8h-30L527.7,198L527.7,198z M610.4,97.6c0,20.9-10,33.2-25.6,33.2c-16.6,0-26.5-11.8-26.5-33.2
		c0-23,9.1-34.8,25.8-34.8C600.8,62.8,610.4,74.8,610.4,97.6"/>
	<path class="st1" d="M463.6,153h30.9V61.9H514V40.8h-19.8v-7.8c0-7.2,2.9-8.5,11.6-8.5h8.3V0.6C508.5,0.2,503.6,0,499,0
		c-24.3,0-35.4,9.3-35.4,30.4v10.4h-16.9v21.1h16.9V153L463.6,153z"/>
	<path class="st1" d="M325.1,96.8c0,37.4,22.7,60,59.8,60s59.8-22.6,59.8-60c0-37.4-22.7-60-59.8-60S325.1,59.4,325.1,96.8
		 M357.2,96.8c0-22.4,10.2-34.6,27.8-34.6s27.6,12.3,27.6,34.6c0,22.4-10,34.8-27.6,34.8S357.2,119.1,357.2,96.8"/>
	<path class="st1" d="M198.3,96.8c0,37.4,22.7,60,59.8,60s59.8-22.6,59.8-60c0-37.4-22.7-60-59.8-60S198.3,59.4,198.3,96.8
		 M230.3,96.8c0-22.4,10.2-34.6,27.8-34.6s27.6,12.3,27.6,34.6c0,22.4-10,34.8-27.6,34.8S230.3,119.1,230.3,96.8"/>
	<path class="st1" d="M126.7,153h31.6V93.6c0-16.9,8.9-25.3,26-25.3h10.5V37.8c-1.6-0.2-3.1-0.2-4.7-0.2c-15.1,0-25.8,6.9-34,22.4
		V40.7h-29.3L126.7,153L126.7,153z"/>
	<path class="st1" d="M0,198h30.7v-59c7.8,11.6,19.8,17.7,34.9,17.7c27.6,0,48.5-23.4,48.5-60.4S93.8,37,65.1,37
		c-15.4,0-26,5.9-35.1,19V40.8H0V198L0,198z M82.7,97.6c0,20.9-10,33.2-25.6,33.2c-16.7,0-26.5-11.8-26.5-33.2
		c0-23,9.1-34.8,25.8-34.8S82.7,74.8,82.7,97.6"/>
	<path class="st1" d="M1040.5,143.2h1.3c1.5,0,2.8-0.5,2.8-1.8c0-1.1-0.8-1.9-2.6-1.9c-0.7,0-1.2,0.1-1.5,0.1L1040.5,143.2
		L1040.5,143.2z M1040.5,150h-2.8v-12c1.1-0.2,2.6-0.4,4.6-0.4c2.3,0,3.3,0.4,4.2,0.9c0.6,0.5,1.1,1.5,1.1,2.6c0,1.3-1,2.4-2.5,2.8
		v0.1c1.1,0.5,1.8,1.3,2.2,2.9c0.4,1.9,0.6,2.6,0.9,3h-3c-0.4-0.5-0.6-1.5-1-2.9c-0.2-1.3-1-1.9-2.5-1.9h-1.3L1040.5,150L1040.5,150
		z M1033.1,143.7c0,5.4,4,9.6,9.4,9.6c5.4,0,9.1-4.3,9.1-9.5c0-5.3-3.9-9.7-9.2-9.7C1037,134.1,1033.1,138.5,1033.1,143.7
		 M1054.7,143.7c0,6.9-5.4,12.2-12.3,12.2c-6.9,0-12.4-5.4-12.4-12.2c0-6.8,5.5-12,12.4-12C1049.3,131.6,1054.7,137,1054.7,143.7"/>
</g>
<g>
	<defs>
		<rect id="SVGID_3_" width="1665.9" height="419.2"/>
	</defs>
	<clipPath id="SVGID_4_">
		<use xlink:href="#SVGID_3_"  style="overflow:visible;"/>
	</clipPath>
	<path class="st2" d="M2.1,410.6V248.8h29.3v15.7c8.9-13.7,19.3-19.6,34.3-19.6c14.1,0,25.6,5.7,34.6,17
		c8.9,11.1,13.3,25.9,13.3,44.2c0,18.5-4.3,33.5-13.3,45c-8.9,11.5-20.2,17.2-34.1,17.2c-15,0-26.5-6.3-34.1-18.3v60.7H2.1z
		 M58,341.5c7.8,0,13.9-3,18.5-9.1c4.3-6.1,6.5-14.4,6.5-25c0-23.5-8.9-35.9-25.6-35.9s-25.2,12.2-25.2,35.9
		C32.1,329.3,41.2,341.5,58,341.5"/>
	<path class="st2" d="M130.4,364.3V248.8h28.7v19.8c8-15.9,18.5-23.1,33.3-23.1c2.4,0,3.7,0,4.6,0.2v31.3h-10.2
		c-17,0-25.4,8.7-25.4,26.1v61.1H130.4z"/>
	<path class="st2" d="M262.1,368.2c-18.3,0-32.4-5.4-42.8-16.5c-10.4-10.9-15.6-25.9-15.6-45.2c0-19.1,5.2-34.4,15.6-45.2
		c10.4-11.1,24.6-16.5,42.8-16.5c18,0,32.4,5.4,42.8,16.5c10.4,10.9,15.6,25.9,15.6,45.2c0,19.4-5.2,34.4-15.6,45.2
		C294.5,362.8,280.1,368.2,262.1,368.2 M262.1,342.3c17.2,0,26.9-12.8,26.9-35.9c0-22.8-9.3-35.7-26.9-35.7
		c-17.6,0-27.2,12.8-27.2,35.7C234.9,329.5,244.5,342.3,262.1,342.3"/>
	<path class="st2" d="M375.9,365.8c-11.7,0-20-2.2-24.3-6.7c-4.3-4.4-6.5-13.1-6.5-26.1v-62.4h-15.2v-21.8h15.2v-31.5h30.6v31.5
		h17.8v21.8h-17.8v64c0,3,0.7,5,2,5.9c1.3,1.1,4.1,1.5,8.3,1.5h7.6v23.3l-10.2,0.4C379.4,365.8,376.8,365.8,375.9,365.8"/>
	<path class="st2" d="M455.5,368.2c-16.7,0-29.8-5.7-39.6-16.8c-9.8-11.3-14.8-26.5-14.8-45.7c0-18.9,4.8-33.9,14.6-44.8
		c9.6-10.9,22.6-16.3,39.3-16.3c17.6,0,31.3,5.4,41.1,16.1c9.6,10.7,14.3,26.1,14.3,45.9c0,4.4,0,6.1-0.2,8h-77.2
		c0.9,18.3,8.9,27.4,23.9,27.4c10.6,0,17.2-3.9,21.1-12.8H509c-3,12.2-9.3,21.8-18.9,28.5C480.8,364.7,469.2,368.2,455.5,368.2
		 M433.2,294.3h45.4c-0.7-15.7-8.3-23.7-22.8-23.7C442.3,270.5,434.5,279,433.2,294.3"/>
	<path class="st2" d="M574.5,368.2c-16.7,0-29.8-5.4-39.3-16.3c-9.6-11.1-14.3-26.1-14.3-45.5c0-19.1,4.8-34.4,14.6-45.2
		c9.8-11.1,23.3-16.5,40.2-16.5c15,0,27,3.9,35.9,12c9.1,8,14.1,18.9,15.2,33.1H596c-1.7-12.4-8.7-18.9-20.2-18.9
		c-15.2,0-22.8,12-22.8,36.1c0,22.4,8,34.6,22.8,34.6c11.5,0,18.5-7,20.6-20.7h30.4c-1.3,14.6-6.7,26.1-16.1,34.6
		C601.5,363.9,589.3,368.2,574.5,368.2"/>
	<path class="st2" d="M677.9,365.8c-11.7,0-20-2.2-24.3-6.7c-4.3-4.4-6.5-13.1-6.5-26.1v-62.4h-15.2v-21.8H647v-31.5h30.6v31.5h17.8
		v21.8h-17.8v64c0,3,0.7,5,2,5.9c1.3,1.1,4.1,1.5,8.3,1.5h7.6v23.3l-10.2,0.4C681.3,365.8,678.7,365.8,677.9,365.8"/>
	<path class="st2" d="M769.9,209.6h30.7v27.9h-30.7V209.6z M769.9,250.3h30.7v114.5h-30.7V250.3z"/>
	<path class="st2" d="M821.6,364.8V250.3h30.1v13.6c4.2-5.5,9.3-9.7,15.2-12.4c5.8-2.7,12.3-4.2,19.5-4.2c12.7,0,22,3.4,28.4,9.9
		c6.3,6.5,9.5,16.4,9.5,29.6v78h-30.7v-69.2c0-8.2-1.5-14-4.2-17.6c-2.7-3.5-7.3-5.3-13.5-5.3c-7.3,0-13,2.2-17.2,6.5
		c-4.2,4.3-6.3,10.2-6.3,17.6v67.9H821.6z"/>
	<path class="st2" d="M937.8,327.5h30.6c0.2,5.9,2.3,10.2,6.3,13.1c3.9,2.8,9.8,4.2,17.7,4.2c5.9,0,10.5-0.9,13.8-3
		c3.3-2,5-4.8,5-8.5c0-5.2-6.1-9.1-18.3-11.7c-5.1-1.1-9-1.9-11.9-2.7c-15-3.8-25.3-8.2-31.1-13.5c-5.8-5.2-8.6-12.2-8.6-21.1
		c0-11.7,4.2-21,12.7-27.8c8.4-6.8,19.9-10.3,34.5-10.3c15.3,0,27.3,3.5,36.1,10.2c8.8,6.8,13.4,16.4,14,28.7h-29.8
		c-0.2-4.8-2.1-8.5-5.6-11.3c-3.5-2.6-8.3-4-14.4-4c-5.9,0-10.2,0.9-13.1,2.6c-2.8,1.8-4.2,4.4-4.2,7.9c0,4.6,7.6,8.6,22.9,12.1
		c3.5,0.8,6.2,1.5,8.3,1.9c15.2,3.6,25.6,7.9,31.2,13c5.6,5.1,8.4,12.2,8.4,21.4c0,13.1-4.6,23-13.8,29.7
		c-9.2,6.8-22.5,10.2-40,10.2c-15.8,0-28.3-3.5-37.1-10.6c-9-7.1-13.4-16.8-13.4-29.3V327.5z"/>
	<path class="st2" d="M1056.3,209.6h30.7v27.9h-30.7V209.6z M1056.3,250.3h30.7v114.5h-30.7V250.3z"/>
	<path class="st2" d="M1133.1,305.7c0,10.7,2.1,19.1,6.4,24.7c4.3,5.8,10.5,8.6,18.6,8.6c8,0,14.2-2.8,18.5-8.6
		c4.2-5.7,6.4-14.1,6.4-25.2c0-10.4-2.2-18.5-6.6-24.2c-4.4-5.7-10.7-8.6-18.7-8.6c-7.8,0-13.9,2.9-18.1,8.7
		C1135.2,287,1133.1,295.2,1133.1,305.7 M1105.3,375.8l33.5-0.1c1,3.9,3,6.7,6,8.6c3.1,1.9,7.2,2.8,12.3,2.8c9.5,0,16.2-2,20-6
		c3.8-4,5.7-11.5,5.7-22.4v-10.2c-3.3,5.6-7.5,9.7-12.7,12.3c-5.2,2.6-11.6,3.9-19.3,3.9c-14.9,0-26.8-5.3-35.6-15.8
		c-9-10.5-13.4-24.6-13.4-42.2c0-18.5,4.3-33.2,13.1-44.1c8.8-11,20.6-16.4,35.4-16.4c7.7,0,14.2,1.5,19.7,4.4
		c5.5,2.9,9.9,7.5,13.4,13.5v-13.8h29.1v106.9c0,12-1.2,21.2-3.4,27.5c-2.3,6.3-6.1,11.7-11.5,15.9c-4.6,3.6-10.5,6.3-17.7,8.2
		c-7.2,1.9-15.3,2.7-24.4,2.7c-15.4,0-27.4-3.1-36.2-9.4C1110.7,395.9,1106,387.2,1105.3,375.8"/>
	<path class="st2" d="M1233.9,364.8V209.6h30.5v53.3c4.1-5.2,9.1-9.1,14.8-11.7c5.7-2.6,12.1-4,19.3-4c6.8,0,12.8,1.2,18.2,3.5
		c5.5,2.3,9.9,5.7,13.3,9.9c2.3,2.9,3.9,6.2,4.8,9.9c0.9,3.8,1.5,9.7,1.5,17.9v76.3h-30.5v-59.9c0-14.1-1.4-23.1-3.9-26.6
		c-2.6-3.6-7.3-5.5-14-5.5c-7.3,0-13,2.2-17.2,6.5c-4.2,4.3-6.3,10.2-6.3,17.6v67.9H1233.9z"/>
	<path class="st2" d="M1407.9,365.6c-2.8,0.1-6.2,0.2-10.1,0.4c-3.9,0.2-6.3,0.2-7.4,0.2c-11.8,0-19.8-2.1-24.1-6.5
		c-4.3-4.4-6.4-13.1-6.4-26v-61.9h-15.2v-21.5h15.2V219h30.4v31.3h17.7v21.5h-17.7v63.4c0,3.1,0.6,5.1,2,6c1.3,0.9,4,1.4,8.2,1.4
		h7.5V365.6z"/>
	<path class="st2" d="M1412.8,327.5h30.6c0.2,5.9,2.3,10.2,6.3,13.1c3.9,2.8,9.8,4.2,17.7,4.2c5.9,0,10.5-0.9,13.8-3
		c3.3-2,5-4.8,5-8.5c0-5.2-6.1-9.1-18.3-11.7c-5.1-1.1-9-1.9-11.9-2.7c-15-3.8-25.3-8.2-31.1-13.5c-5.8-5.2-8.6-12.2-8.6-21.1
		c0-11.7,4.2-21,12.7-27.8c8.4-6.8,19.9-10.3,34.5-10.3c15.3,0,27.3,3.5,36.1,10.2c8.8,6.8,13.4,16.4,14,28.7h-29.8
		c-0.2-4.8-2.1-8.5-5.6-11.3c-3.5-2.6-8.3-4-14.4-4c-5.9,0-10.2,0.9-13.1,2.6c-2.8,1.8-4.2,4.4-4.2,7.9c0,4.6,7.6,8.6,22.9,12.1
		c3.5,0.8,6.2,1.5,8.3,1.9c15.2,3.6,25.6,7.9,31.2,13c5.6,5.1,8.4,12.2,8.4,21.4c0,13.1-4.6,23-13.8,29.7
		c-9.2,6.8-22.5,10.2-40,10.2c-15.8,0-28.3-3.5-37.1-10.6c-9-7.1-13.4-16.8-13.4-29.3V327.5z"/>
</g>
</svg>
