<?xml version="1.0" encoding="utf-8"?>
<!-- Generator: Adobe Illustrator 19.1.0, SVG Export Plug-In . SVG Version: 6.00 Build 0)  -->
<svg version="1.1" id="Layer_1" xmlns="http://www.w3.org/2000/svg" xmlns:xlink="http://www.w3.org/1999/xlink" x="0px" y="0px"
	 viewBox="0 0 414.6 82.3" style="enable-background:new 0 0 414.6 82.3;" xml:space="preserve">
<style type="text/css">
	.st0{fill:#6E6E6E;}
</style>
<g>
	<g>
		<path class="st0" d="M208.6,19h11.5v5.7c0.3-0.4,0.5-0.5,0.6-0.7c6.7-9.5,20.9-7.8,26.9,0.2c3.2,4.2,4.6,9,4.9,14.2
			c0.3,3.9-0.1,7.8-1.3,11.5c-1.7,5.3-4.7,9.5-9.8,12.1c-6.1,3-15.6,2.4-20.6-4.4c-0.1-0.1-0.2-0.2-0.4-0.5v22.4h-11.9V19z
			 M220.3,40.7c0.2,1.5,0.3,3.1,0.6,4.6c1.2,6.1,5.9,9.3,11.9,8.1c4-0.8,6.1-3.6,7.2-7.4c1-3.5,0.9-7.1,0.1-10.7
			c-0.9-3.9-3.5-7.7-8.9-7.9c-4.1-0.2-7.4,1.3-9.2,5.3C220.7,35.3,220.5,38,220.3,40.7"/>
		<path class="st0" d="M16.4,79.4H4.6V19h11.5v5.7c0.3-0.4,0.5-0.5,0.6-0.7c6.7-9.5,21-7.8,27,0.2c3.2,4.3,4.6,9.1,4.9,14.2
			c0.3,3.9-0.2,7.7-1.3,11.4c-1.7,5.2-4.6,9.4-9.6,12c-6.1,3.1-15.8,2.6-20.8-4.4c-0.1-0.1-0.2-0.2-0.4-0.4V79.4z M36.6,40.7
			c-0.3-1.8-0.4-3.7-0.8-5.5c-1.6-6.6-6.2-8.5-11.7-7.6c-3.8,0.6-5.9,3.2-6.9,6.7c-1.1,3.7-1.2,7.4-0.3,11.1c1,4.6,3.8,7.3,8,8
			c4.6,0.7,8.3-1.3,10.3-5.5C36.2,45.7,36.5,43.3,36.6,40.7"/>
		<path class="st0" d="M127.6,40.5c-0.1,3.4-0.6,6.7-1.8,9.8c-2.2,6-6.5,10-12.6,12c-5.9,1.9-11.9,1.9-17.8,0
			c-7.7-2.5-12-8-13.6-15.7c-1-4.9-0.8-9.8,0.7-14.6c2.2-7,6.9-11.5,14-13.4c5.4-1.5,10.9-1.5,16.3,0.1c7.8,2.4,12.5,7.8,14.1,15.7
			C127.2,36.4,127.4,38.4,127.6,40.5 M115,40c-0.1-0.7-0.1-2-0.3-3.2c-1-7-5.8-10.5-12.7-9.4c-4.1,0.7-6.5,3.5-7.7,7.4
			c-0.9,3.3-1,6.6-0.4,9.9c1.1,5.8,4.2,8.8,9.7,9.2c4,0.3,7.3-1,9.4-4.7C114.6,46.5,114.9,43.5,115,40"/>
		<path class="st0" d="M176.5,39.7c-0.1,5.4-0.9,9.7-3.1,13.6c-2.7,4.8-6.7,7.8-11.9,9.2c-5.5,1.5-11,1.6-16.4,0
			c-7.4-2.2-12.1-7.1-14-14.6c-1.4-5.6-1.3-11.2,0.6-16.7c2.2-6.4,6.6-10.6,13.1-12.5c5.7-1.7,11.5-1.8,17.2,0
			c8,2.5,12.5,8.1,14,16.2C176.3,36.7,176.4,38.7,176.5,39.7 M142.6,41.3c0.1,0.8,0.2,2.3,0.5,3.7c1.4,6.8,6.1,9.8,12.7,8.7
			c4-0.7,6.3-3.4,7.5-7.2c1-3.4,1.1-7,0.4-10.5c-1.1-5.5-4.2-8.5-9.6-8.8c-3.8-0.2-7.1,1-9.2,4.4C143,34.3,142.7,37.4,142.6,41.3"/>
		<path class="st0" d="M303.1,40.5c-0.2,3.5-0.7,6.9-2,10.2c-2,5-5.5,8.7-10.5,10.8c-6.7,2.8-13.7,2.9-20.5,0.5
			c-6.6-2.3-10.7-7-12.4-13.7c-1.5-5.8-1.4-11.5,0.5-17.1c2.2-6.4,6.7-10.6,13.1-12.5c5.7-1.7,11.4-1.7,17.1,0
			c7.6,2.4,12.1,7.6,13.8,15.3C302.7,36.1,302.8,38.4,303.1,40.5 M290.6,40.6c-0.2-1.5-0.3-2.9-0.5-4.4c-1.4-7.4-6.8-10.1-13.4-8.6
			c-4,0.9-6,3.8-7,7.5c-0.9,3.3-0.9,6.7-0.2,10c0.9,4.6,3.8,8.5,9.5,8.7c4.8,0.2,8.5-1.6,10.3-6.4C290.2,45.3,290.4,42.9,290.6,40.6
			"/>
		<path class="st0" d="M339.6,62.1h-12.2V19.1h11.8v4.9c0.3-0.3,0.5-0.4,0.7-0.6c3.8-4.1,8.6-5.7,14-5.5c1.8,0.1,3.6,0.3,5.3,0.7
			c4.8,1.3,7.5,4.6,8.5,9.4c0.3,1.3,0.4,2.7,0.4,4c0,9.7,0,19.5,0,29.2c0,0.3,0,0.5,0,0.8H356c0-0.4,0-0.8,0-1.1
			c0-8.3,0-16.6,0-24.9c0-1.3-0.2-2.6-0.4-3.8c-0.5-2.8-2.4-4.6-5.3-4.6c-1.7,0-3.5,0-5.1,0.5c-3.5,1.1-5.2,3.7-5.5,7.2
			c-0.1,0.9-0.1,1.9-0.1,2.8c0,7.6,0,15.2,0,22.8C339.6,61.3,339.6,61.7,339.6,62.1"/>
		<path class="st0" d="M195.8,62.1h-11.9v-35h-6.5V19h6.5c0-1.4,0-2.7,0-3.9c0.1-1.2,0.1-2.4,0.3-3.6c0.9-4.3,3.8-6.9,8.3-7.7
			c3.6-0.6,7.2-0.4,10.8-0.2v9.2c-0.8,0-1.6,0-2.5,0c-0.6,0-1.3,0-1.9,0c-2.4,0.1-3.2,0.9-3.2,3.3c0,0.9,0,1.8,0,2.9h7.6v8.2h-7.5
			V62.1z"/>
		<path class="st0" d="M396.8,53.7v8.6c-0.1,0-0.1,0.1-0.2,0.1c-3.9,0.2-7.9,0.6-11.8-0.1c-4.2-0.8-6.2-2.8-6.8-7
			c-0.2-1.5-0.3-3.1-0.3-4.7c0-7.5,0-15,0-22.5c0-0.3,0-0.6,0-1h-5.9V19h6V7.2h12.1V19h7v8.1h-7c0,0.5,0,0.8,0,1.2
			c0,7.5,0,14.9,0,22.4c0,2.4,0.6,3,3,3.1C394.1,53.8,395.4,53.7,396.8,53.7"/>
		<path class="st0" d="M79.8,29.7c-1.9,0-3.7-0.1-5.5,0c-5.3,0.3-8.4,3.5-8.5,8.9c-0.1,7.4,0,14.9,0,22.3c0,0.4,0,0.8,0,1.2H53.6V19
			h11.2v6.9c0.1,0.1,0.1,0.1,0.2,0.2c3.2-5.9,7.9-9,14.8-8.3V29.7z"/>
		<rect x="307.7" y="19" class="st0" width="12.1" height="43.1"/>
		<rect x="307.7" y="3.8" class="st0" width="12.1" height="10.3"/>
		<path class="st0" d="M403.4,58.6c0-2.4,1.9-4.4,4.3-4.4c2.4,0,4.3,2,4.3,4.4c0,2.4-1.9,4.4-4.3,4.4
			C405.3,63,403.4,61.1,403.4,58.6 M411.2,58.6c0-2-1.6-3.5-3.5-3.5c-2,0-3.5,1.6-3.5,3.5c0,2,1.6,3.6,3.5,3.6
			C409.6,62.2,411.2,60.6,411.2,58.6 M409.8,61h-1.1l-1-2h-0.9v2h-0.9v-4.7h2.3c0.4,0,0.9,0,1.3,0.2c0.4,0.3,0.5,0.7,0.5,1.2
			c0,0.9-0.4,1.2-1.3,1.3L409.8,61z M408.2,58.3c0.5,0,0.9-0.1,0.9-0.7c0-0.6-0.7-0.6-1.1-0.6h-1.1v1.3H408.2z"/>
	</g>
</g>
</svg>
