<?xml version="1.0" encoding="utf-8"?>
<!-- Generator: Adobe Illustrator 19.1.0, SVG Export Plug-In . SVG Version: 6.00 Build 0)  -->
<svg version="1.1" id="Layer_1" xmlns="http://www.w3.org/2000/svg" xmlns:xlink="http://www.w3.org/1999/xlink" x="0px" y="0px"
	 viewBox="0 0 206 301.8" style="enable-background:new 0 0 206 301.8;" xml:space="preserve">
<style type="text/css">
	.st0{clip-path:url(#SVGID_2_);fill:url(#SVGID_3_);}
	.st1{clip-path:url(#SVGID_5_);fill:url(#SVGID_6_);}
	.st2{clip-path:url(#SVGID_8_);fill:url(#SVGID_9_);}
	.st3{clip-path:url(#SVGID_11_);fill:url(#SVGID_12_);}
	.st4{opacity:0.45;}
	.st5{clip-path:url(#SVGID_14_);fill:#FFFFFF;}
	.st6{opacity:0.67;}
	.st7{clip-path:url(#SVGID_16_);fill:#FF4A06;}
	.st8{clip-path:url(#SVGID_18_);fill:#EB3604;}
	.st9{fill:#0068C9;}
	.st10{fill:#FFFFFF;}
	.st11{fill:#FF341C;}
	.st12{opacity:0.69;}
	.st13{clip-path:url(#SVGID_20_);}
	.st14{clip-path:url(#SVGID_22_);fill:url(#SVGID_23_);}
</style>
<g>
	<g>
		<defs>
			<path id="SVGID_1_" d="M83.8,73.2c-19.5,0-35.4,15.9-35.4,35.4v19.6H66v-19.6c0-9.8,8-17.8,17.8-17.8h38.4
				c9.8,0,17.8,8,17.8,17.8v19.6h17.6v-19.6c0-19.5-15.9-35.4-35.4-35.4H83.8z"/>
		</defs>
		<clipPath id="SVGID_2_">
			<use xlink:href="#SVGID_1_"  style="overflow:visible;"/>
		</clipPath>
		
			<linearGradient id="SVGID_3_" gradientUnits="userSpaceOnUse" x1="-57.7026" y1="418.4168" x2="-45.8857" y2="418.4168" gradientTransform="matrix(9.2379 0 0 -9.2379 581.47 3965.9954)">
			<stop  offset="0" style="stop-color:#FF8600"/>
			<stop  offset="1" style="stop-color:#FFBE00"/>
		</linearGradient>
		<rect x="48.4" y="73.2" class="st0" width="109.2" height="55"/>
	</g>
	<g>
		<defs>
			<path id="SVGID_4_" d="M10.4,198.1c0,51.1,41.5,92.6,92.6,92.6s92.6-41.5,92.6-92.6s-41.5-92.6-92.6-92.6S10.4,146.9,10.4,198.1"
				/>
		</defs>
		<clipPath id="SVGID_5_">
			<use xlink:href="#SVGID_4_"  style="overflow:visible;"/>
		</clipPath>
		
			<linearGradient id="SVGID_6_" gradientUnits="userSpaceOnUse" x1="-90.807" y1="449.6779" x2="-78.9889" y2="449.6779" gradientTransform="matrix(-8.2132 -8.2132 -8.2132 8.2132 3094.386 -4197.1382)">
			<stop  offset="0" style="stop-color:#FF8600"/>
			<stop  offset="1" style="stop-color:#FFBE00"/>
		</linearGradient>
		<polygon class="st1" points="103,383.3 -82.2,198.1 103,12.8 288.2,198.1 		"/>
	</g>
	<g>
		<defs>
			<path id="SVGID_7_" d="M15.1,198.1c0,48.6,39.4,87.9,87.9,87.9c48.6,0,87.9-39.4,87.9-87.9c0-48.5-39.4-87.9-87.9-87.9
				C54.4,110.1,15.1,149.5,15.1,198.1"/>
		</defs>
		<clipPath id="SVGID_8_">
			<use xlink:href="#SVGID_7_"  style="overflow:visible;"/>
		</clipPath>
		
			<linearGradient id="SVGID_9_" gradientUnits="userSpaceOnUse" x1="-48.7303" y1="429.8239" x2="-36.9123" y2="429.8239" gradientTransform="matrix(9.9402 9.9402 9.9402 -9.9402 -3735.7578 4904.3267)">
			<stop  offset="0" style="stop-color:#FF8600"/>
			<stop  offset="1" style="stop-color:#FFBE00"/>
		</linearGradient>
		<polygon class="st2" points="103,22.2 278.9,198.1 103,373.9 -72.8,198.1 		"/>
	</g>
	<g>
		<defs>
			<path id="SVGID_10_" d="M28,198.1c0,41.4,33.6,75,75,75c41.4,0,75-33.6,75-75c0-41.4-33.6-75-75-75C61.6,123.1,28,156.6,28,198.1
				"/>
		</defs>
		<clipPath id="SVGID_11_">
			<use xlink:href="#SVGID_10_"  style="overflow:visible;"/>
		</clipPath>
		
			<linearGradient id="SVGID_12_" gradientUnits="userSpaceOnUse" x1="-80.7092" y1="444.6289" x2="-68.8912" y2="444.6289" gradientTransform="matrix(-15.3354 -15.3354 -15.3354 15.3354 5774.957 -7767.124)">
			<stop  offset="0" style="stop-color:#FF8600"/>
			<stop  offset="1" style="stop-color:#FFBE00"/>
		</linearGradient>
		<polygon class="st3" points="103,348 -47,198.1 103,48.1 253,198.1 		"/>
	</g>
	<g class="st4">
		<g>
			<defs>
				<rect id="SVGID_13_" x="28" y="123.1" width="130.4" height="130.4"/>
			</defs>
			<clipPath id="SVGID_14_">
				<use xlink:href="#SVGID_13_"  style="overflow:visible;"/>
			</clipPath>
			<path class="st5" d="M33,203c0-41.4,33.6-75,75-75c19.4,0,37.1,7.5,50.4,19.6c-13.7-15.1-33.4-24.6-55.4-24.6
				c-41.4,0-75,33.6-75,75c0,22,9.5,41.7,24.6,55.4C40.4,240.1,33,222.5,33,203"/>
		</g>
	</g>
	<g class="st6">
		<g>
			<defs>
				<rect id="SVGID_15_" x="45" y="140.1" width="133" height="133"/>
			</defs>
			<clipPath id="SVGID_16_">
				<use xlink:href="#SVGID_15_"  style="overflow:visible;"/>
			</clipPath>
			<path class="st7" d="M150.5,140.1c10.6,12.9,20.5,33,20.5,51c0,41.4-33.6,75-75,75c-18,0-38.1-9.9-51-20.5
				c13.8,16.8,34.6,27.5,58,27.5c41.4,0,75-33.6,75-75C178,174.7,167.3,153.8,150.5,140.1"/>
		</g>
	</g>
	<g class="st6">
		<g>
			<defs>
				<rect id="SVGID_17_" x="79.4" y="155.8" width="38.3" height="84.4"/>
			</defs>
			<clipPath id="SVGID_18_">
				<use xlink:href="#SVGID_17_"  style="overflow:visible;"/>
			</clipPath>
			<polygon class="st8" points="117.7,155.8 117.7,240.3 95.7,240.3 95.7,173.9 79.4,173.9 79.4,155.8 			"/>
		</g>
	</g>
	<path class="st9" d="M113,0L79.5,90.5c-1.7,4.7,1.7,9.7,6.8,9.7h7L130.3,0H113z"/>
	<polygon class="st10" points="130.3,0 93.3,100.3 110.6,100.3 147.6,0 	"/>
	<path class="st11" d="M147.6,0l-28.3,76.6l-8.7,23.5l0,0.1h12.3c1.7,0,3.3-0.6,4.5-1.7c1-0.8,1.7-1.8,2.2-3L164.9,0H147.6z"/>
	<g class="st12">
		<g>
			<defs>
				<rect id="SVGID_19_" x="79.1" y="0.4" width="59.8" height="99.9"/>
			</defs>
			<clipPath id="SVGID_20_">
				<use xlink:href="#SVGID_19_"  style="overflow:visible;"/>
			</clipPath>
			<g class="st13">
				<defs>
					<path id="SVGID_21_" d="M138.8,70.8l-9.1,24.8c-0.5,1.3-1.3,2.3-2.2,3c-1.3,1.1-2.8,1.7-4.5,1.7H86.3c-5,0-8.5-5-6.8-9.7
						l33.3-90.1L138.8,70.8z"/>
				</defs>
				<clipPath id="SVGID_22_">
					<use xlink:href="#SVGID_21_"  style="overflow:visible;"/>
				</clipPath>
				
					<linearGradient id="SVGID_23_" gradientUnits="userSpaceOnUse" x1="-90.6085" y1="544.6144" x2="-78.7904" y2="544.6144" gradientTransform="matrix(-1.4698 0.7139 0.7139 1.4698 -399.9925 -692.1308)">
					<stop  offset="0" style="stop-color:#FFFFFF"/>
					<stop  offset="1" style="stop-color:#02183C"/>
				</linearGradient>
				<polygon class="st14" points="178.1,81.2 89.5,124.2 38.6,19.4 127.2,-23.6 				"/>
			</g>
		</g>
	</g>
	<path class="st9" d="M91,0H73.7l36.9,100.1l0,0.1h12.2c1.7,0,3.3-0.6,4.5-1.7l-8.1-22L91,0z"/>
	<polygon class="st10" points="56.4,0 93.4,100.3 110.7,100.3 73.7,0 	"/>
	<path class="st11" d="M39.1,0l35.3,95.5c1.1,2.8,3.8,4.7,6.8,4.7h12.3L56.4,0H39.1z"/>
</g>
</svg>
