<?xml version="1.0" encoding="utf-8"?>
<!-- Generator: Adobe Illustrator 19.1.0, SVG Export Plug-In . SVG Version: 6.00 Build 0)  -->
<svg version="1.1" id="Layer_1" xmlns="http://www.w3.org/2000/svg" xmlns:xlink="http://www.w3.org/1999/xlink" x="0px" y="0px"
	 viewBox="0 0 2333.1 1319.9" style="enable-background:new 0 0 2333.1 1319.9;" xml:space="preserve">
<style type="text/css">
	.st0{fill:#0D66B0;}
</style>
<polygon class="st0" points="206.9,805.5 0,1254.7 0,1319.9 389.3,1319.9 627.2,805.5 "/>
<polygon class="st0" points="2247.9,803.7 2009.9,1319.9 2095.1,1319.9 2333.1,803.7 "/>
<polygon class="st0" points="1739.8,801.8 1501.8,1319.9 1670.2,1319.9 1908.2,801.8 "/>
<polygon class="st0" points="1230.7,802.8 992.7,1319.9 1246.3,1319.9 1484.3,802.8 "/>
<polygon class="st0" points="1784.7,2.6 1906,2.6 1531.5,814.8 1410.2,814.8 "/>
<polygon class="st0" points="1060.8,0 687.7,812.2 927.7,812.2 1300.8,0 "/>
<polygon class="st0" points="335.6,1.3 0,730.7 0,812.2 323.8,812.2 696.9,1.3 "/>
</svg>
