<?xml version="1.0" encoding="utf-8"?>
<!-- Generator: Adobe Illustrator 19.1.0, SVG Export Plug-In . SVG Version: 6.00 Build 0)  -->
<svg version="1.1" id="Layer_1" xmlns="http://www.w3.org/2000/svg" xmlns:xlink="http://www.w3.org/1999/xlink" x="0px" y="0px"
	 viewBox="0 0 139.9 168.9" style="enable-background:new 0 0 139.9 168.9;" xml:space="preserve">
<style type="text/css">
	.st0{clip-path:url(#SVGID_2_);fill:url(#SVGID_3_);}
	.st1{clip-path:url(#SVGID_5_);fill:url(#SVGID_6_);}
	.st2{clip-path:url(#SVGID_11_);fill:url(#SVGID_12_);}
	.st3{clip-path:url(#SVGID_14_);fill:url(#SVGID_15_);}
	.st4{clip-path:url(#SVGID_17_);fill:url(#SVGID_18_);}
	.st5{clip-path:url(#SVGID_20_);fill:url(#SVGID_21_);}
	.st6{clip-path:url(#SVGID_23_);fill:url(#SVGID_24_);}
	.st7{clip-path:url(#SVGID_26_);fill:url(#SVGID_27_);}
	.st8{clip-path:url(#SVGID_29_);fill:url(#SVGID_30_);}
	.st9{clip-path:url(#SVGID_32_);fill:url(#SVGID_33_);}
	.st10{clip-path:url(#SVGID_35_);fill:url(#SVGID_36_);}
	.st11{clip-path:url(#SVGID_38_);fill:url(#SVGID_39_);}
	.st12{clip-path:url(#SVGID_41_);fill:url(#SVGID_42_);}
	.st13{clip-path:url(#SVGID_44_);fill:url(#SVGID_45_);}
	.st14{clip-path:url(#SVGID_47_);fill:url(#SVGID_48_);}
	.st15{clip-path:url(#SVGID_50_);fill:url(#SVGID_51_);}
	.st16{clip-path:url(#SVGID_53_);fill:url(#SVGID_54_);}
	.st17{clip-path:url(#SVGID_56_);fill:url(#SVGID_57_);}
</style>
<g>
	<defs>
		<path id="SVGID_1_" d="M1,24.2V8.9l13.3-7.7l13.3,7.7v15.4l-13.3,7.7L1,24.2z M14.3,0L0,8.3v16.5l14.3,8.3l14.3-8.3V8.3L14.3,0z"
			/>
	</defs>
	<clipPath id="SVGID_2_">
		<use xlink:href="#SVGID_1_"  style="overflow:visible;"/>
	</clipPath>
	
		<linearGradient id="SVGID_3_" gradientUnits="userSpaceOnUse" x1="0" y1="168.908" x2="1" y2="168.908" gradientTransform="matrix(151.4337 2.0327 2.0327 -151.4337 -348.5049 25594.6426)">
		<stop  offset="0" style="stop-color:#004A91"/>
		<stop  offset="1" style="stop-color:#00305F"/>
	</linearGradient>
	<polygon class="st0" points="0,-0.4 29.1,0 28.7,33.5 -0.4,33.1 	"/>
</g>
<g>
	<defs>
		<path id="SVGID_4_" d="M32.9,24.2V8.9l13.3-7.7l13.3,7.7v15.4l-13.3,7.7L32.9,24.2z M46.2,0L31.9,8.3v16.5l14.3,8.3l14.3-8.3V8.3
			L46.2,0z"/>
	</defs>
	<clipPath id="SVGID_5_">
		<use xlink:href="#SVGID_4_"  style="overflow:visible;"/>
	</clipPath>
	
		<linearGradient id="SVGID_6_" gradientUnits="userSpaceOnUse" x1="0" y1="168.908" x2="1" y2="168.908" gradientTransform="matrix(151.4337 2.0327 2.0327 -151.4337 -348.4994 25594.2148)">
		<stop  offset="0" style="stop-color:#004A91"/>
		<stop  offset="1" style="stop-color:#00305F"/>
	</linearGradient>
	<polygon class="st1" points="31.9,-0.4 61,0 60.5,33.5 31.4,33.1 	"/>
</g>
<g>
	<defs>
		<path id="SVGID_7_" d="M64.8,24.2V8.9l13.3-7.7l13.3,7.7v15.4l-13.3,7.7L64.8,24.2z M78.1,0L63.8,8.3v16.5l14.3,8.3l14.3-8.3V8.3
			L78.1,0z"/>
	</defs>
	<linearGradient id="SVGID_8_" gradientUnits="userSpaceOnUse" x1="68.8167" y1="16.546" x2="87.3843" y2="16.546">
		<stop  offset="0" style="stop-color:#004A91"/>
		<stop  offset="1" style="stop-color:#00305F"/>
	</linearGradient>
	<use xlink:href="#SVGID_7_"  style="overflow:visible;fill:url(#SVGID_8_);"/>
	<clipPath id="SVGID_9_">
		<use xlink:href="#SVGID_7_"  style="overflow:visible;"/>
	</clipPath>
</g>
<g>
	<defs>
		<path id="SVGID_10_" d="M96.7,24.2V8.9L110,1.2l13.3,7.7v15.4L110,31.9L96.7,24.2z M110,0L95.7,8.3v16.5l14.3,8.3l14.3-8.3V8.3
			L110,0z"/>
	</defs>
	<clipPath id="SVGID_11_">
		<use xlink:href="#SVGID_10_"  style="overflow:visible;"/>
	</clipPath>
	
		<linearGradient id="SVGID_12_" gradientUnits="userSpaceOnUse" x1="0" y1="168.908" x2="1" y2="168.908" gradientTransform="matrix(151.4337 2.0327 2.0327 -151.4337 -348.4878 25593.3594)">
		<stop  offset="0" style="stop-color:#004A91"/>
		<stop  offset="1" style="stop-color:#00305F"/>
	</linearGradient>
	<polygon class="st2" points="95.7,-0.4 124.8,0 124.3,33.5 95.2,33.1 	"/>
</g>
<g>
	<defs>
		<path id="SVGID_13_" d="M29.9,60.1l-14.3-8.3V35.3L29.9,27l14.3,8.3v16.5L29.9,60.1z M16.6,51.3l13.3,7.7l13.3-7.7V35.9l-13.3-7.7
			l-13.3,7.7V51.3z"/>
	</defs>
	<clipPath id="SVGID_14_">
		<use xlink:href="#SVGID_13_"  style="overflow:visible;"/>
	</clipPath>
	
		<linearGradient id="SVGID_15_" gradientUnits="userSpaceOnUse" x1="0" y1="168.908" x2="1" y2="168.908" gradientTransform="matrix(151.4337 2.0327 2.0327 -151.4337 -348.8647 25621.4395)">
		<stop  offset="0" style="stop-color:#004A91"/>
		<stop  offset="1" style="stop-color:#00305F"/>
	</linearGradient>
	<polygon class="st3" points="15.6,26.6 44.7,27 44.3,60.5 15.2,60.1 	"/>
</g>
<g>
	<defs>
		<path id="SVGID_16_" d="M61.8,60.1l-14.3-8.3V35.3L61.8,27l14.3,8.3v16.5L61.8,60.1z M48.5,51.3l13.3,7.7l13.3-7.7V35.9l-13.3-7.7
			l-13.3,7.7V51.3z"/>
	</defs>
	<clipPath id="SVGID_17_">
		<use xlink:href="#SVGID_16_"  style="overflow:visible;"/>
	</clipPath>
	
		<linearGradient id="SVGID_18_" gradientUnits="userSpaceOnUse" x1="0" y1="168.908" x2="1" y2="168.908" gradientTransform="matrix(151.4337 2.0327 2.0327 -151.4337 -348.8588 25621.0117)">
		<stop  offset="0" style="stop-color:#004A91"/>
		<stop  offset="1" style="stop-color:#00305F"/>
	</linearGradient>
	<polygon class="st4" points="47.5,26.6 76.6,27 76.2,60.5 47.1,60.1 	"/>
</g>
<g>
	<defs>
		<path id="SVGID_19_" d="M93.7,60.1l-14.3-8.3V35.3L93.7,27l14.3,8.3v16.5L93.7,60.1z M80.4,51.3l13.3,7.7l13.3-7.7V35.9l-13.3-7.7
			l-13.3,7.7V51.3z"/>
	</defs>
	<clipPath id="SVGID_20_">
		<use xlink:href="#SVGID_19_"  style="overflow:visible;"/>
	</clipPath>
	
		<linearGradient id="SVGID_21_" gradientUnits="userSpaceOnUse" x1="0" y1="168.908" x2="1" y2="168.908" gradientTransform="matrix(151.4337 2.0327 2.0327 -151.4337 -348.8532 25620.584)">
		<stop  offset="0" style="stop-color:#004A91"/>
		<stop  offset="1" style="stop-color:#00305F"/>
	</linearGradient>
	<polygon class="st5" points="79.4,26.6 108.5,27 108,60.5 78.9,60.1 	"/>
</g>
<g>
	<defs>
		<path id="SVGID_22_" d="M1,78.6V63.3l13.3-7.7l13.3,7.7v15.4l-13.3,7.7L1,78.6z M0,62.7v16.5l14.3,8.3l14.3-8.3V62.7l-14.3-8.3
			L0,62.7z"/>
	</defs>
	<clipPath id="SVGID_23_">
		<use xlink:href="#SVGID_22_"  style="overflow:visible;"/>
	</clipPath>
	
		<linearGradient id="SVGID_24_" gradientUnits="userSpaceOnUse" x1="0" y1="168.908" x2="1" y2="168.908" gradientTransform="matrix(151.4337 2.0327 2.0327 -151.4337 -349.235 25649.0352)">
		<stop  offset="0" style="stop-color:#004A91"/>
		<stop  offset="1" style="stop-color:#00305F"/>
	</linearGradient>
	<polygon class="st6" points="0,54 29.1,54.4 28.7,87.9 -0.4,87.5 	"/>
</g>
<g>
	<defs>
		<path id="SVGID_25_" d="M46.2,87.5l-14.3-8.3V62.7l14.3-8.3l14.3,8.3v16.5L46.2,87.5z M32.9,78.6l13.3,7.7l13.3-7.7V63.3
			l-13.3-7.7l-13.3,7.7V78.6z"/>
	</defs>
	<clipPath id="SVGID_26_">
		<use xlink:href="#SVGID_25_"  style="overflow:visible;"/>
	</clipPath>
	
		<linearGradient id="SVGID_27_" gradientUnits="userSpaceOnUse" x1="0" y1="168.908" x2="1" y2="168.908" gradientTransform="matrix(151.4337 2.0327 2.0327 -151.4337 -349.2293 25648.6074)">
		<stop  offset="0" style="stop-color:#004A91"/>
		<stop  offset="1" style="stop-color:#00305F"/>
	</linearGradient>
	<polygon class="st7" points="31.9,54 61,54.4 60.5,87.9 31.4,87.5 	"/>
</g>
<g>
	<defs>
		<path id="SVGID_28_" d="M78.1,87.5l-14.3-8.3V62.7l14.3-8.3l14.3,8.3v16.5L78.1,87.5z M64.8,78.6l13.3,7.7l13.3-7.7V63.3
			l-13.3-7.7l-13.3,7.7V78.6z"/>
	</defs>
	<clipPath id="SVGID_29_">
		<use xlink:href="#SVGID_28_"  style="overflow:visible;"/>
	</clipPath>
	
		<linearGradient id="SVGID_30_" gradientUnits="userSpaceOnUse" x1="0" y1="168.908" x2="1" y2="168.908" gradientTransform="matrix(151.4337 2.0327 2.0327 -151.4337 -349.2237 25648.1797)">
		<stop  offset="0" style="stop-color:#004A91"/>
		<stop  offset="1" style="stop-color:#00305F"/>
	</linearGradient>
	<polygon class="st8" points="63.8,54 92.9,54.4 92.4,87.9 63.3,87.5 	"/>
</g>
<g>
	<defs>
		<path id="SVGID_31_" d="M110,87.5l-14.3-8.3V62.7l14.3-8.3l14.3,8.3v16.5L110,87.5z M96.7,78.6l13.3,7.7l13.3-7.7V63.3L110,55.6
			l-13.3,7.7V78.6z"/>
	</defs>
	<clipPath id="SVGID_32_">
		<use xlink:href="#SVGID_31_"  style="overflow:visible;"/>
	</clipPath>
	
		<linearGradient id="SVGID_33_" gradientUnits="userSpaceOnUse" x1="0" y1="168.908" x2="1" y2="168.908" gradientTransform="matrix(151.4337 2.0327 2.0327 -151.4337 -349.2178 25647.752)">
		<stop  offset="0" style="stop-color:#004A91"/>
		<stop  offset="1" style="stop-color:#00305F"/>
	</linearGradient>
	<polygon class="st9" points="95.7,54 124.8,54.4 124.3,87.9 95.2,87.5 	"/>
</g>
<g>
	<defs>
		<path id="SVGID_34_" d="M61.8,114.5l-14.3-8.3V89.7l14.3-8.3l14.3,8.3v16.5L61.8,114.5z M48.5,105.7l13.3,7.7l13.3-7.7V90.3
			l-13.3-7.7l-13.3,7.7V105.7z"/>
	</defs>
	<clipPath id="SVGID_35_">
		<use xlink:href="#SVGID_34_"  style="overflow:visible;"/>
	</clipPath>
	
		<linearGradient id="SVGID_36_" gradientUnits="userSpaceOnUse" x1="0" y1="168.908" x2="1" y2="168.908" gradientTransform="matrix(151.4337 2.0327 2.0327 -151.4337 -349.589 25675.4043)">
		<stop  offset="0" style="stop-color:#004A91"/>
		<stop  offset="1" style="stop-color:#00305F"/>
	</linearGradient>
	<polygon class="st10" points="47.5,81 76.6,81.4 76.2,114.9 47.1,114.5 	"/>
</g>
<g>
	<defs>
		<path id="SVGID_37_" d="M93.7,114.5l-14.3-8.3V89.7l14.3-8.3l14.3,8.3v16.5L93.7,114.5z M80.4,105.7l13.3,7.7l13.3-7.7V90.3
			l-13.3-7.7l-13.3,7.7V105.7z"/>
	</defs>
	<clipPath id="SVGID_38_">
		<use xlink:href="#SVGID_37_"  style="overflow:visible;"/>
	</clipPath>
	
		<linearGradient id="SVGID_39_" gradientUnits="userSpaceOnUse" x1="0" y1="168.908" x2="1" y2="168.908" gradientTransform="matrix(151.4337 2.0327 2.0327 -151.4337 -349.5832 25674.9766)">
		<stop  offset="0" style="stop-color:#004A91"/>
		<stop  offset="1" style="stop-color:#00305F"/>
	</linearGradient>
	<polygon class="st11" points="79.4,81 108.5,81.4 108,114.9 78.9,114.5 	"/>
</g>
<g>
	<defs>
		<path id="SVGID_40_" d="M112.3,105.7V90.3l13.3-7.7l13.3,7.7v15.4l-13.3,7.7L112.3,105.7z M111.3,89.7v16.5l14.3,8.3l14.3-8.3
			V89.7l-14.3-8.3L111.3,89.7z"/>
	</defs>
	<clipPath id="SVGID_41_">
		<use xlink:href="#SVGID_40_"  style="overflow:visible;"/>
	</clipPath>
	
		<linearGradient id="SVGID_42_" gradientUnits="userSpaceOnUse" x1="0" y1="168.908" x2="1" y2="168.908" gradientTransform="matrix(151.4337 2.0327 2.0327 -151.4337 -349.5775 25674.5488)">
		<stop  offset="0" style="stop-color:#004A91"/>
		<stop  offset="1" style="stop-color:#00305F"/>
	</linearGradient>
	<polygon class="st12" points="111.3,81 140.4,81.4 139.9,114.9 110.8,114.5 	"/>
</g>
<g>
	<defs>
		<path id="SVGID_43_" d="M46.2,141.9l-14.3-8.3v-16.5l14.3-8.3l14.3,8.3v16.5L46.2,141.9z M32.9,133l13.3,7.7l13.3-7.7v-15.4
			L46.2,110l-13.3,7.7V133z"/>
	</defs>
	<clipPath id="SVGID_44_">
		<use xlink:href="#SVGID_43_"  style="overflow:visible;"/>
	</clipPath>
	
		<linearGradient id="SVGID_45_" gradientUnits="userSpaceOnUse" x1="0" y1="168.908" x2="1" y2="168.908" gradientTransform="matrix(151.4337 2.0327 2.0327 -151.4337 -349.9596 25703.002)">
		<stop  offset="0" style="stop-color:#004A91"/>
		<stop  offset="1" style="stop-color:#00305F"/>
	</linearGradient>
	<polygon class="st13" points="31.9,108.4 61,108.8 60.5,142.3 31.4,141.9 	"/>
</g>
<g>
	<defs>
		<path id="SVGID_46_" d="M78.1,141.9l-14.3-8.3v-16.5l14.3-8.3l14.3,8.3v16.5L78.1,141.9z M64.8,133l13.3,7.7l13.3-7.7v-15.4
			L78.1,110l-13.3,7.7V133z"/>
	</defs>
	<clipPath id="SVGID_47_">
		<use xlink:href="#SVGID_46_"  style="overflow:visible;"/>
	</clipPath>
	
		<linearGradient id="SVGID_48_" gradientUnits="userSpaceOnUse" x1="0" y1="168.908" x2="1" y2="168.908" gradientTransform="matrix(151.4337 2.0327 2.0327 -151.4337 -349.9536 25702.5723)">
		<stop  offset="0" style="stop-color:#004A91"/>
		<stop  offset="1" style="stop-color:#00305F"/>
	</linearGradient>
	<polygon class="st14" points="63.8,108.4 92.9,108.8 92.4,142.3 63.3,141.9 	"/>
</g>
<g>
	<defs>
		<path id="SVGID_49_" d="M110,141.9l-14.3-8.3v-16.5l14.3-8.3l14.3,8.3v16.5L110,141.9z M96.7,133l13.3,7.7l13.3-7.7v-15.4L110,110
			l-13.3,7.7V133z"/>
	</defs>
	<clipPath id="SVGID_50_">
		<use xlink:href="#SVGID_49_"  style="overflow:visible;"/>
	</clipPath>
	
		<linearGradient id="SVGID_51_" gradientUnits="userSpaceOnUse" x1="0" y1="168.908" x2="1" y2="168.908" gradientTransform="matrix(151.4337 2.0327 2.0327 -151.4337 -349.948 25702.1445)">
		<stop  offset="0" style="stop-color:#004A91"/>
		<stop  offset="1" style="stop-color:#00305F"/>
	</linearGradient>
	<polygon class="st15" points="95.7,108.4 124.8,108.8 124.3,142.3 95.2,141.9 	"/>
</g>
<g>
	<defs>
		<path id="SVGID_52_" d="M48.5,160.1v-15.4l13.3-7.7l13.3,7.7v15.4l-13.3,7.7L48.5,160.1z M47.5,144.1v16.5l14.3,8.3l14.3-8.3
			v-16.5l-14.3-8.3L47.5,144.1z"/>
	</defs>
	<clipPath id="SVGID_53_">
		<use xlink:href="#SVGID_52_"  style="overflow:visible;"/>
	</clipPath>
	
		<linearGradient id="SVGID_54_" gradientUnits="userSpaceOnUse" x1="0" y1="168.908" x2="1" y2="168.908" gradientTransform="matrix(151.4337 2.0327 2.0327 -151.4337 -350.319 25729.7969)">
		<stop  offset="0" style="stop-color:#004A91"/>
		<stop  offset="1" style="stop-color:#00305F"/>
	</linearGradient>
	<polygon class="st16" points="47.5,135.4 76.6,135.8 76.2,169.3 47.1,168.9 	"/>
</g>
<g>
	<defs>
		<path id="SVGID_55_" d="M80.4,160.1v-15.4l13.3-7.7l13.3,7.7v15.4l-13.3,7.7L80.4,160.1z M79.4,144.1v16.5l14.3,8.3l14.3-8.3
			v-16.5l-14.3-8.3L79.4,144.1z"/>
	</defs>
	<clipPath id="SVGID_56_">
		<use xlink:href="#SVGID_55_"  style="overflow:visible;"/>
	</clipPath>
	
		<linearGradient id="SVGID_57_" gradientUnits="userSpaceOnUse" x1="0" y1="168.908" x2="1" y2="168.908" gradientTransform="matrix(151.4337 2.0327 2.0327 -151.4337 -350.3134 25729.3691)">
		<stop  offset="0" style="stop-color:#004A91"/>
		<stop  offset="1" style="stop-color:#00305F"/>
	</linearGradient>
	<polygon class="st17" points="79.4,135.4 108.5,135.8 108,169.3 78.9,168.9 	"/>
</g>
</svg>
