<?xml version="1.0" encoding="utf-8"?>
<!-- Generator: Adobe Illustrator 19.1.0, SVG Export Plug-In . SVG Version: 6.00 Build 0)  -->
<svg version="1.1" id="Layer_1" xmlns="http://www.w3.org/2000/svg" xmlns:xlink="http://www.w3.org/1999/xlink" x="0px" y="0px"
	 viewBox="0 0 350.6 362" style="enable-background:new 0 0 350.6 362;" xml:space="preserve">
<style type="text/css">
	.st0{fill:#B60424;}
	.st1{fill:#F20530;}
</style>
<path class="st0" d="M334.1,188.9h-63c0-0.7,0.1-1.4,0.1-2.1c0-13.3-1-26.3-4.6-38.1c21.1-22.5,34.1-52.6,34.1-85.9
	c0-7.3-5.9-13.2-13.2-13.2c-7.3,0-13.2,5.9-13.2,13.2c0,24.8-9.2,47.4-24.3,64.8c-4-1.5-7-1.6-7-1.6c-6.6-13.8-15.9-25.5-26.9-33.9
	c-1.9-5.9,0.4-12.6,5.9-16l3.1-1.9l10.7-6.6l0.3-0.2c0.1-0.1,0.2-0.2,0.3-0.2c15.3-9.9,19.9-30.4,10.3-45.9l-6.8-11
	c-2.9-4.7-9-6.1-13.6-3.2c-4.7,2.9-6.1,9-3.2,13.6l6.8,11c4,6.5,2,15.1-4.5,19.1l-10.7,6.6l-3.1,1.9c-8.2,5.1-13.4,13.2-15.2,22.1
	c-6.7-2.3-13.8-3.6-21.1-3.6v227.9h8.9c23.4-2.7,44.3-15.9,59.8-35.7c18.7,18,30.4,43.3,30.4,71.3c0,7.3,5.9,13.2,13.2,13.2
	c7.3,0,13.2-5.9,13.2-13.2c0-37.5-16.5-71.2-42.8-94.2c4.7-9.8,8.2-20.5,10.4-31.9h65.8c7.3,0,13.2-5.9,13.2-13.2
	S341.4,188.9,334.1,188.9"/>
<path class="st1" d="M154,81.5c-1.8-8.8-7-17-15.2-22.1l-3.1-1.9L125,50.9c-6.5-4-8.5-12.6-4.5-19.1l6.8-11
	c2.9-4.7,1.4-10.8-3.2-13.7c-4.6-2.9-10.7-1.5-13.6,3.2l-6.8,11c-9.6,15.5-5,36,10.3,45.9c0.1,0.1,0.2,0.2,0.3,0.2l0.3,0.2l10.7,6.6
	l3.1,1.9c5.5,3.4,7.8,10.1,5.9,16c-11,8.4-20.3,20-26.9,33.8c0,0-3.2,0-7.1,1.4C85.1,110.2,76,87.6,76,62.9
	c0-7.3-5.9-13.2-13.2-13.2c-7.3,0-13.2,5.9-13.2,13.2c0,33.4,13.2,63.8,34.6,86.2c-3.2,11.9-5,24.5-5,37.7c0,0.7,0.1,1.4,0.1,2.1
	h-63c-7.3,0-13.2,5.9-13.2,13.2c0,7.3,5.9,13.2,13.2,13.2H82c2.2,11.3,5.7,22.1,10.3,31.9c-26.2,23-42.8,56.6-42.8,94.2
	c0,7.3,5.9,13.2,13.2,13.2c7.3,0,13.2-5.9,13.2-13.2c0-28,11.7-53.2,30.4-71.3c15.5,19.8,36.4,33,59.8,35.7h8.9V77.9
	C167.8,77.9,160.7,79.2,154,81.5"/>
</svg>
