<?xml version="1.0" encoding="utf-8"?>
<!-- Generator: Adobe Illustrator 19.1.0, SVG Export Plug-In . SVG Version: 6.00 Build 0)  -->
<svg version="1.1" id="Layer_1" xmlns="http://www.w3.org/2000/svg" xmlns:xlink="http://www.w3.org/1999/xlink" x="0px" y="0px"
	 viewBox="-177 177.7 734.7 206.3" style="enable-background:new -177 177.7 734.7 206.3;" xml:space="preserve">
<style type="text/css">
	.st0{fill:#6E6E6E;}
	.st1{fill:#1067B2;}
	.st2{fill:none;}
</style>
<g>
	<g>
		<path class="st0" d="M360.2,299.7c5.3,0,9.5,4.3,9.5,9.5c0,5.3-4.3,9.5-9.5,9.5h-27.3c-3.1,0-5.7,2.6-5.7,5.7v5.7h42.5v3.8h-46.3
			v-9.5c0-5.2,4.2-9.5,9.4-9.5l0,0h27.4c3.1,0,5.7-2.5,5.7-5.7c0-3.1-2.5-5.7-5.7-5.7h-36.8v-3.8H360.2z"/>
		<path class="st0" d="M421.2,314.9v3.8c0,8.4-6.8,15.2-15.2,15.2h-15.9c-8.4,0-15.2-6.8-15.2-15.2v-3.8c0-8.4,6.8-15.2,15.2-15.2
			H406C414.4,299.7,421.2,306.5,421.2,314.9 M417.4,314.9c0-6.3-5.1-11.4-11.4-11.4h-15.9c-6.3,0-11.4,5.1-11.4,11.4v3.8
			c0,6.3,5.1,11.4,11.4,11.4H406c6.3,0,11.4-5.1,11.4-11.4V314.9z"/>
		<path class="st0" d="M400.3,311.9h-4.5c-2.4,0-4.3,2-4.3,4.3v1.1c0,2.4,2,4.3,4.3,4.3h4.5c2.4,0,4.3-2,4.3-4.3v-1.1
			C404.7,313.9,402.7,311.9,400.3,311.9"/>
		<path class="st0" d="M360.2,347c5.3,0,9.5,4.3,9.5,9.5c0,5.3-4.3,9.5-9.5,9.5h-27.3c-3.1,0-5.7,2.6-5.7,5.7v5.7h42.5v3.8h-46.3
			v-9.5c0-5.2,4.2-9.5,9.4-9.5l0,0h27.4c3.1,0,5.7-2.5,5.7-5.7c0-3.1-2.5-5.7-5.7-5.7h-36.8V347H360.2z"/>
		<path class="st0" d="M375.9,381.2v-3.8h36.8c3.1,0,5.7-2.5,5.7-5.7c0-3.1-2.5-5.7-5.7-5.7h-27.4l0,0c-5.2,0-9.4-4.3-9.4-9.5V347
			h46.3v3.8h-42.5v5.7c0,3.1,2.6,5.7,5.7,5.7h27.3c5.3,0,9.5,4.3,9.5,9.5c0,5.3-4.3,9.5-9.5,9.5H375.9z"/>
		<rect x="307.3" y="299.7" class="st0" width="2.5" height="81.5"/>
		<g>
			<g>
				<path class="st0" d="M1.6,180.8v42.9h-2.9v-37.5l-16,37.4h-3.2l-15.8-37.4v37.5h-3v-42.9h3.8l16.7,40.2l16.5-40.2
					C-2.3,180.8,1.6,180.8,1.6,180.8z"/>
				<path class="st0" d="M22.8,184.4c1.1,0,1.9,0.9,1.9,1.9c0,1-0.9,1.8-1.9,1.8s-2-0.8-2-1.8S21.8,184.4,22.8,184.4z M21.5,193.7
					h2.8v30h-2.8V193.7z"/>
				<path class="st0" d="M45.3,200.9c0,8.6,24.6,2.9,24.6,15c0,4.8-6.3,8.4-13.8,8.4c-5.8,0-13.7-2.3-13.7-9.3H45
					c0,5.1,5.5,7.3,11,7.3c5.6,0,11.1-2.2,11.1-6.3c0-10.2-24.6-3.3-24.6-15c0-4.8,6.2-8.5,13.7-8.5c5.6,0,13.7,2.5,13.8,9.3h-2.7
					c0.4-4.8-5.4-7.1-11.1-7.1C50.6,194.8,45.3,196.9,45.3,200.9z"/>
				<path class="st0" d="M89.7,200.9c0,8.6,24.6,2.9,24.6,15c0,4.8-6.3,8.4-13.8,8.4c-5.8,0-13.7-2.3-13.7-9.3h2.6
					c0,5.1,5.5,7.3,11,7.3c5.6,0,11.1-2.2,11.1-6.3c0-10.2-24.6-3.3-24.6-15c0-4.8,6.2-8.5,13.7-8.5c5.6,0,13.7,2.5,13.8,9.3h-2.7
					c0.4-4.8-5.4-7.1-11.1-7.1C95.1,194.8,89.7,196.9,89.7,200.9z"/>
				<path class="st0" d="M133.8,184.4c1.1,0,2,0.9,2,1.9c0,1-0.9,1.8-2,1.8c-1,0-2-0.8-2-1.8S132.8,184.4,133.8,184.4z M132.4,193.7
					h2.8v30h-2.8V193.7z"/>
				<path class="st0" d="M189.6,208.4c0,8.7-8.2,15.9-18.4,15.9c-10.2,0-18.3-7.2-18.3-15.9c0-8.8,8.1-15.8,18.3-15.8
					S189.6,199.6,189.6,208.4z M186.7,208.4c0-7.4-6.9-13.6-15.5-13.6s-15.5,6.1-15.5,13.6s6.9,13.6,15.5,13.6
					C179.8,222,186.7,215.9,186.7,208.4z"/>
				<path class="st0" d="M210.2,205.5v18.2h-2.8v-30.6h2.8v6.4c1.6-4.6,6.2-7,11.1-7c6.2,0,12.7,4.2,12.7,13.3v17.9h-2.7l-0.1-18
					c0-7.4-5.2-11.2-10.5-11.2C215.5,194.5,210.2,198.2,210.2,205.5L210.2,205.5z"/>
			</g>
		</g>
		<g>
			<g>
				<path class="st0" d="M-40.5,237.2H-17c8.3,0,15.3,6.9,15.3,15.3s-7,15.3-15.3,15.3h-11.5v19.8h-12.1v-50.4H-40.5z M-28.5,248v9
					h10.4c2.5,0,4.5-2,4.5-4.5s-2-4.5-4.5-4.5H-28.5z"/>
				<path class="st0" d="M4.2,237.2h23.5c8.3,0,15.2,6.9,15.2,15.3c0,6.5-4.2,12-9.9,14.1l12.1,21H32.8l-11.4-19.8h-5.1v19.8H4.2
					V237.2z M16.3,248v9h10.4c2.5,0,4.5-2,4.5-4.5s-2-4.5-4.5-4.5H16.3z"/>
				<path class="st0" d="M77,236.6c15.8,0,28.4,11.6,28.4,25.8c0,14.3-12.7,25.9-28.4,25.9s-28.4-11.6-28.4-25.9
					C48.7,248.3,61.3,236.6,77,236.6z M77,277.7c9.1,0,16.4-6.8,16.4-15.2c0-8.3-7.3-15-16.4-15c-9,0-16.3,6.7-16.3,15
					C60.7,270.9,68,277.7,77,277.7z"/>
				<path class="st0" d="M149.3,237.2V248h-15v39.6h-12.1V248h-14.9v-10.8H149.3z"/>
				<path class="st0" d="M166.4,248v9h21.1v10.8h-21.1v9.1h26.7v10.7h-38.6v-50.4h38.6V248H166.4z"/>
				<path class="st0" d="M225,277.7c5.9,0,11-2.9,13.9-7.1l10.1,5.9c-5,7.1-13.9,12-24,12c-15.7,0-28.4-11.6-28.4-25.9
					c0-14.2,12.7-25.8,28.4-25.8c10.1,0,19,4.8,24,12l-10,5.9c-3-4.2-8.1-7-14-7c-9,0-16.3,6.7-16.3,15
					C208.7,270.9,216,277.7,225,277.7z"/>
				<path class="st0" d="M293.3,237.2V248h-15v39.6h-12.1V248h-14.9v-10.8H293.3z"/>
				<path class="st0" d="M298.5,287.6v-50.4h12.1v50.4H298.5z"/>
				<path class="st0" d="M366.9,237.2v50.4h-18.2l-17.2-35.2v35.2h-12.1v-50.4h18.3l17.2,35.2v-35.2H366.9z"/>
				<path class="st0" d="M411.1,267.9h-12.8v-10.7h24.9v22.3c-5.2,5.4-12.8,8.8-21.4,8.8c-15.4,0-28.4-11.3-28.4-25.9
					c0-14.2,12.7-25.8,28.4-25.8c8.6,0,16.2,3.4,21.4,8.9l-10.3,5.9c-2.9-2.5-6.9-4-11.1-4c-9,0-16.4,6.7-16.4,15
					c0,8.6,7.6,15.2,16.4,15.2c3.5,0,6.8-1,9.3-3L411.1,267.9L411.1,267.9z"/>
			</g>
		</g>
		<g>
			<g>
				<path class="st0" d="M-5.9,320.4c-2.7,0-5.1,0.5-7.1,1.4s-3,2.1-3,3.7c0,1.1,0.8,2,2.5,2.8c1.6,0.8,3.8,1.5,6.4,2.1
					c2.6,0.6,5.5,1.2,8.7,1.8c3.2,0.6,6.4,1.6,9.5,2.8c3.2,1.2,6,2.7,8.7,4.4c2.6,1.7,4.8,4.1,6.4,7.1c1.6,3,2.5,6.5,2.6,10.4
					c0,5.2-1.7,9.6-5.2,13.4s-7.8,6.5-13,8.3c-5.2,1.8-10.8,2.7-16.8,2.7c-4.2-0.1-8.3-0.8-12.3-2.1s-7.6-3.1-11-5.4
					c-3.3-2.3-6-5.2-8-8.9c-2.1-3.7-3.1-7.7-3.1-12.1h24.5v2.4c0,1.5,1,2.7,2.9,3.6c1.9,0.9,4.3,1.3,7,1.3s5-0.4,7-1.3
					c2-0.9,3-2.1,3-3.6c0-1-0.6-1.9-1.9-2.6c-1.3-0.8-2.9-1.4-5-1.8c-2.1-0.5-4.5-1-7.1-1.6c-2.7-0.6-5.4-1.2-8.2-1.9
					c-2.8-0.6-5.5-1.6-8.2-2.9s-5-2.8-7.1-4.5c-2.1-1.7-3.8-3.9-5-6.6c-1.3-2.7-1.9-5.9-1.9-9.4c0-5.2,1.7-9.7,5.1-13.5
					c3.4-3.8,7.6-6.6,12.8-8.4c5.1-1.8,10.6-2.7,16.5-2.7c4.3,0,8.4,0.6,12.6,1.9s7.8,3,11.2,5.4c3.3,2.3,6,5.3,8.1,9
					s3.1,7.7,3.1,12.2H4v-2.4c0-1.6-1-2.8-2.9-3.7C-0.9,320.8-3.2,320.4-5.9,320.4z"/>
				<path class="st0" d="M63.5,380H39v-80h24.5V380z"/>
				<path class="st0" d="M71.2,300.1h69.4v22h-22.5v58H93.5v-58H71.2V300.1z"/>
				<path class="st0" d="M213.3,322.2h-40.9v6.8h32v22h-32v7h40.9v22H148v-79.9h65.3V322.2z"/>
				<path class="st0" d="M256.2,320.4c-2.7,0-5.1,0.5-7.1,1.4s-3,2.1-3,3.7c0,1.1,0.8,2,2.5,2.8c1.6,0.8,3.8,1.5,6.4,2.1
					s5.5,1.2,8.7,1.8c3.2,0.6,6.4,1.6,9.5,2.8c3.2,1.2,6,2.7,8.7,4.4c2.6,1.7,4.8,4.1,6.4,7.1s2.5,6.5,2.6,10.4
					c0,5.2-1.7,9.6-5.2,13.4s-7.8,6.5-13,8.3c-5.2,1.8-10.8,2.7-16.8,2.7c-4.2-0.1-8.3-0.8-12.3-2.1s-7.6-3.1-11-5.4
					c-3.3-2.3-6-5.2-8-8.9s-3.1-7.7-3.1-12.1H246v2.4c0,1.5,1,2.7,2.9,3.6c1.9,0.9,4.3,1.3,7,1.3s5-0.4,7-1.3c2-0.9,3-2.1,3-3.6
					c0-1-0.6-1.9-1.9-2.6c-1.3-0.8-2.9-1.4-5-1.8c-2.1-0.5-4.5-1-7.1-1.6c-2.7-0.6-5.4-1.2-8.2-1.9c-2.8-0.6-5.5-1.6-8.2-2.9
					s-5-2.8-7.1-4.5c-2.1-1.7-3.8-3.9-5-6.6c-1.3-2.7-1.9-5.9-1.9-9.4c0-5.2,1.7-9.7,5.1-13.5c3.4-3.8,7.6-6.6,12.8-8.4
					c5.1-1.8,10.6-2.7,16.5-2.7c4.3,0,8.4,0.6,12.6,1.9c4.1,1.3,7.8,3,11.2,5.4c3.3,2.3,6,5.3,8.1,9s3.1,7.7,3.1,12.2H266v-2.4
					c0-1.6-1-2.8-2.9-3.7C261.2,320.8,258.9,320.4,256.2,320.4z"/>
			</g>
		</g>
	</g>
	<g>
		<path class="st1" d="M-157.8,306.2c0,4.4-3.6,8-8,8c-4.4,0-8-3.6-8-8c0-4.4,3.6-8,8-8C-161.4,298.2-157.8,301.7-157.8,306.2"/>
		<path class="st1" d="M-157.8,325.8c0,4.4-3.6,8-8,8c-4.4,0-8-3.6-8-8c0-4.4,3.6-8,8-8C-161.4,317.8-157.8,321.4-157.8,325.8"/>
		<path class="st1" d="M-138.2,327.6c0,4.4-3.6,8-8,8c-4.4,0-8-3.6-8-8c0-4.4,3.6-8,8-8C-141.8,319.6-138.2,323.1-138.2,327.6"/>
		<path class="st1" d="M-157.8,345.4c0,4.4-3.6,8-8,8c-4.4,0-8-3.6-8-8s3.6-8,8-8C-161.4,337.4-157.8,341-157.8,345.4"/>
		<path class="st1" d="M-157.8,227.7c0,4.4-3.6,8-8,8c-4.4,0-8-3.6-8-8s3.6-8,8-8C-161.4,219.7-157.8,223.3-157.8,227.7"/>
		<path class="st1" d="M-157.8,286.6c0,4.4-3.6,8-8,8c-4.4,0-8-3.6-8-8s3.6-8,8-8C-161.4,278.5-157.8,282.1-157.8,286.6"/>
		<path class="st1" d="M-138.2,287.5c0,4.4-3.6,8-8,8c-4.4,0-8-3.6-8-8s3.6-8,8-8C-141.8,279.4-138.2,283-138.2,287.5"/>
		<path class="st1" d="M-138.2,307.5c0,4.4-3.6,8-8,8c-4.4,0-8-3.6-8-8s3.6-8,8-8C-141.8,299.5-138.2,303.1-138.2,307.5"/>
		<path class="st1" d="M-157.8,266.9c0,4.4-3.6,8-8,8c-4.4,0-8-3.6-8-8s3.6-8,8-8C-161.4,258.9-157.8,262.5-157.8,266.9"/>
		<path class="st1" d="M-138.2,267.4c0,4.4-3.6,8-8,8c-4.4,0-8-3.6-8-8s3.6-8,8-8C-141.8,259.4-138.2,263-138.2,267.4"/>
		<path class="st1" d="M-157.8,247.3c0,4.4-3.6,8-8,8c-4.4,0-8-3.6-8-8c0-4.4,3.6-8,8-8C-161.4,239.3-157.8,242.9-157.8,247.3"/>
		<path class="st1" d="M-138.2,247.3c0,4.4-3.6,8-8,8c-4.4,0-8-3.6-8-8c0-4.4,3.6-8,8-8C-141.8,239.3-138.2,242.9-138.2,247.3"/>
		<path class="st1" d="M-118.6,286.6c0,4.4-3.6,8-8,8s-8-3.6-8-8s3.6-8,8-8C-122.2,278.5-118.6,282.1-118.6,286.6"/>
		<path class="st1" d="M-118.6,306.2c0,4.4-3.6,8-8,8s-8-3.6-8-8c0-4.4,3.6-8,8-8S-118.6,301.7-118.6,306.2"/>
		<path class="st1" d="M-99,286.6c0,4.4-3.6,8-8,8s-8-3.6-8-8s3.6-8,8-8C-102.6,278.5-99,282.1-99,286.6"/>
		<path class="st1" d="M-118.6,266.9c0,4.4-3.6,8-8,8s-8-3.6-8-8s3.6-8,8-8S-118.6,262.5-118.6,266.9"/>
	</g>
</g>
<rect x="423.2" y="180.8" class="st2" width="134.5" height="154.8"/>
</svg>
