<?xml version="1.0" encoding="utf-8"?>
<!-- Generator: Adobe Illustrator 19.1.0, SVG Export Plug-In . SVG Version: 6.00 Build 0)  -->
<svg version="1.1" id="Layer_1" xmlns="http://www.w3.org/2000/svg" xmlns:xlink="http://www.w3.org/1999/xlink" x="0px" y="0px"
	 viewBox="0 0 484 220.5" style="enable-background:new 0 0 484 220.5;" xml:space="preserve">
<style type="text/css">
	.st0{fill:#4AAF52;}
	.st1{fill:#49AF53;}
	.st2{fill:#FFFFFF;}
</style>
<path class="st0" d="M413.7,130.7c5.4,0,9.7,4.4,9.7,9.7s-4.4,9.7-9.7,9.7h-27.9c-3.2,0-5.8,2.6-5.8,5.8v5.8h43.4v3.9h-47.3V156
	c0-5.3,4.3-9.7,9.6-9.7v0h27.9c3.2,0,5.8-2.6,5.8-5.8c0-3.2-2.6-5.8-5.8-5.8h-37.6v-3.9H413.7z"/>
<path class="st0" d="M476.1,146.2v3.9c0,8.5-7,15.5-15.5,15.5h-16.2c-8.5,0-15.5-7-15.5-15.5v-3.9c0-8.5,7-15.5,15.5-15.5h16.2
	C469.1,130.7,476.1,137.7,476.1,146.2 M472.2,146.2c0-6.4-5.2-11.6-11.6-11.6h-16.2c-6.4,0-11.6,5.2-11.6,11.6v3.9
	c0,6.4,5.2,11.6,11.6,11.6h16.2c6.4,0,11.6-5.2,11.6-11.6V146.2z"/>
<path class="st0" d="M454.8,143.2h-4.6c-2.4,0-4.4,2-4.4,4.4v1.1c0,2.4,2,4.4,4.4,4.4h4.6c2.4,0,4.4-2,4.4-4.4v-1.1
	C459.2,145.2,457.2,143.2,454.8,143.2"/>
<path class="st1" d="M413.7,179c5.4,0,9.7,4.4,9.7,9.7c0,5.4-4.4,9.7-9.7,9.7h-27.9c-3.2,0-5.8,2.6-5.8,5.8v5.8h43.4v3.9h-47.3v-9.7
	c0-5.3,4.3-9.7,9.6-9.7v0h27.9c3.2,0,5.8-2.6,5.8-5.8c0-3.2-2.6-5.8-5.8-5.8h-37.6V179H413.7z"/>
<path class="st0" d="M429.8,214v-3.9h37.6c3.2,0,5.8-2.6,5.8-5.8c0-3.2-2.6-5.8-5.8-5.8h-27.9v0c-5.3,0-9.6-4.4-9.6-9.7V179h47.3
	v3.9h-43.4v5.8c0,3.2,2.6,5.8,5.8,5.8h27.9c5.4,0,9.7,4.4,9.7,9.7c0,5.4-4.4,9.7-9.7,9.7H429.8z"/>
<rect x="359.7" y="130.7" class="st0" width="2.6" height="83.2"/>
<g>
	<path class="st0" d="M47.6,9.3v43.8h-3V14.9L28.3,53.1h-3.2L8.8,14.9v38.2h-3V9.3h3.9l17,41l16.9-41H47.6z"/>
	<path class="st0" d="M69.3,13c1.1,0,2,0.9,2,1.9c0,1-0.9,1.8-2,1.8c-1,0-2-0.8-2-1.8C67.3,13.9,68.2,13,69.3,13z M67.9,22.5h2.9
		v30.5h-2.9V22.5z"/>
	<path class="st0" d="M92.2,29.8c0,8.8,25.2,3,25.2,15.3c0,4.9-6.4,8.6-14.1,8.6c-5.9,0-13.9-2.4-14-9.5h2.7c0,5.2,5.6,7.5,11.2,7.5
		c5.7,0,11.3-2.3,11.3-6.4c0-10.4-25.2-3.3-25.2-15.3c0-4.9,6.3-8.6,14-8.6c5.7,0,14,2.5,14.1,9.5h-2.8c0.4-4.9-5.5-7.2-11.4-7.2
		C97.7,23.6,92.2,25.7,92.2,29.8z"/>
	<path class="st0" d="M137.6,29.8c0,8.8,25.2,3,25.2,15.3c0,4.9-6.4,8.6-14.1,8.6c-5.9,0-13.9-2.4-14-9.5h2.7
		c0,5.2,5.6,7.5,11.2,7.5c5.7,0,11.3-2.3,11.3-6.4c0-10.4-25.2-3.3-25.2-15.3c0-4.9,6.3-8.6,14-8.6c5.7,0,14,2.5,14.1,9.5h-2.8
		c0.4-4.9-5.5-7.2-11.4-7.2C143,23.6,137.6,25.7,137.6,29.8z"/>
	<path class="st0" d="M182.5,13c1.1,0,2,0.9,2,1.9c0,1-0.9,1.8-2,1.8c-1,0-2-0.8-2-1.8C180.6,13.9,181.5,13,182.5,13z M181.1,22.5
		h2.9v30.5h-2.9V22.5z"/>
	<path class="st0" d="M239.6,37.5c0,8.9-8.4,16.2-18.7,16.2c-10.4,0-18.7-7.3-18.7-16.2c0-9,8.3-16.2,18.7-16.2
		C231.1,21.3,239.6,28.5,239.6,37.5z M236.6,37.5c0-7.6-7.1-13.9-15.8-13.9c-8.8,0-15.8,6.3-15.8,13.9c0,7.7,7,13.9,15.8,13.9
		C229.5,51.4,236.6,45.2,236.6,37.5z"/>
	<path class="st0" d="M260.5,34.6v18.5h-2.9V21.9h2.9v6.5c1.6-4.6,6.3-7.2,11.3-7.2c6.3,0,13,4.3,13,13.6v18.3H282l-0.1-18.4
		c0-7.6-5.3-11.4-10.7-11.4C265.9,23.3,260.5,27.1,260.5,34.6L260.5,34.6z"/>
</g>
<g>
	<path class="st2" d="M4.5,66.9h24c8.5,0,15.6,7,15.6,15.6c0,8.6-7.1,15.6-15.6,15.6H16.9v20.2H4.5V66.9z M16.9,78v9.2h10.6
		c2.5,0,4.6-2.1,4.6-4.6C32,80,30,78,27.4,78H16.9z"/>
	<path class="st2" d="M50.2,66.9h24c8.5,0,15.5,7,15.5,15.6c0,6.6-4.3,12.2-10.1,14.4L92,118.4H79.4L67.8,98.2h-5.2v20.2H50.2V66.9z
		 M62.6,78v9.2h10.6c2.5,0,4.6-2.1,4.6-4.6c0-2.5-2.1-4.6-4.6-4.6H62.6z"/>
	<path class="st2" d="M124.6,66.3c16.1,0,29.1,11.9,29.1,26.4c0,14.6-12.9,26.5-29.1,26.5c-16,0-29-11.9-29-26.5
		C95.6,78.2,108.6,66.3,124.6,66.3z M124.6,108.2c9.3,0,16.7-6.9,16.7-15.5c0-8.5-7.5-15.3-16.7-15.3c-9.2,0-16.7,6.9-16.7,15.3
		C108,101.3,115.4,108.2,124.6,108.2z"/>
	<path class="st2" d="M198.4,66.9v11H183v40.4h-12.3V78h-15.3v-11H198.4z"/>
	<path class="st2" d="M215.9,78v9.2h21.5v11h-21.5v9.3h27.2v10.9h-39.5V66.9h39.5v11H215.9z"/>
	<path class="st2" d="M275.7,108.2c6.1,0,11.3-2.9,14.2-7.3l10.3,6c-5.1,7.3-14.2,12.2-24.5,12.2c-16,0-29-11.9-29-26.5
		c0-14.5,12.9-26.4,29-26.4c10.3,0,19.4,4.9,24.5,12.2l-10.2,6c-3-4.3-8.2-7.2-14.3-7.2c-9.2,0-16.7,6.9-16.7,15.3
		C259.1,101.3,266.5,108.2,275.7,108.2z"/>
	<path class="st2" d="M345.4,66.9v11h-15.3v40.4h-12.3V78h-15.3v-11H345.4z"/>
	<path class="st2" d="M350.8,118.4V66.9h12.3v51.4H350.8z"/>
	<path class="st2" d="M420.6,66.9v51.4h-18.6l-17.6-36v36h-12.3V66.9h18.6l17.5,36v-36H420.6z"/>
	<path class="st2" d="M465.8,98.2h-13.1V87.3h25.4v22.8c-5.3,5.5-13.1,9-21.9,9c-15.7,0-29-11.5-29-26.5c0-14.5,12.9-26.4,29-26.4
		c8.8,0,16.6,3.5,21.9,9.1l-10.5,6c-2.9-2.5-7-4.1-11.4-4.1c-9.2,0-16.7,6.9-16.7,15.3c0,8.8,7.8,15.5,16.7,15.5c3.6,0,6.9-1,9.5-3
		V98.2z"/>
</g>
<g>
	<path class="st2" d="M40,151.8c-2.8,0-5.2,0.5-7.2,1.4c-2,0.9-3,2.2-3,3.7c0,1.1,0.8,2,2.5,2.9c1.7,0.8,3.8,1.5,6.5,2.1
		c2.7,0.6,5.7,1.2,8.9,1.9c3.3,0.7,6.5,1.6,9.7,2.9c3.2,1.2,6.2,2.7,8.9,4.5c2.7,1.7,4.9,4.2,6.5,7.2c1.7,3.1,2.5,6.6,2.6,10.7
		c0,5.3-1.8,9.8-5.3,13.7c-3.5,3.8-7.9,6.7-13.2,8.5c-5.3,1.8-11,2.7-17.1,2.7c-4.3-0.1-8.4-0.8-12.5-2.1c-4.1-1.3-7.8-3.1-11.2-5.5
		c-3.4-2.3-6.1-5.4-8.2-9.1s-3.1-7.8-3.1-12.4h25.1v2.4c0,1.6,1,2.8,3,3.7c2,0.9,4.3,1.3,7.1,1.3c2.8,0,5.1-0.4,7.2-1.3
		c2-0.9,3-2.1,3-3.7c0-1-0.6-1.9-1.9-2.7c-1.3-0.8-3-1.4-5.1-1.9c-2.1-0.5-4.6-1-7.3-1.6c-2.7-0.6-5.5-1.3-8.3-1.9
		c-2.8-0.7-5.6-1.6-8.3-3c-2.7-1.3-5.1-2.8-7.3-4.5c-2.1-1.7-3.8-4-5.1-6.8c-1.3-2.8-1.9-6-1.9-9.6c0-5.3,1.7-9.9,5.2-13.7
		c3.5-3.9,7.8-6.7,13.1-8.6c5.2-1.8,10.9-2.7,16.8-2.7c4.3,0,8.6,0.6,12.8,1.9c4.2,1.3,8,3.1,11.4,5.5c3.4,2.4,6.2,5.4,8.3,9.2
		c2.1,3.8,3.1,7.9,3.1,12.4H50V157c0-1.6-1-2.9-3-3.8C45,152.3,42.7,151.8,40,151.8z"/>
	<path class="st2" d="M110.8,212.8H85.8v-81.7h25.1V212.8z"/>
	<path class="st2" d="M118.6,131.1h70.8v22.5h-23v59.2h-25.2v-59.2h-22.7V131.1z"/>
	<path class="st2" d="M263.8,153.7h-41.7v7h32.6v22.5h-32.6v7.1h41.7v22.5h-66.6v-81.6h66.6V153.7z"/>
	<path class="st2" d="M307.6,151.8c-2.8,0-5.2,0.5-7.2,1.4c-2,0.9-3,2.2-3,3.7c0,1.1,0.8,2,2.5,2.9c1.7,0.8,3.8,1.5,6.5,2.1
		c2.7,0.6,5.7,1.2,8.9,1.9c3.3,0.7,6.5,1.6,9.7,2.9c3.2,1.2,6.2,2.7,8.9,4.5c2.7,1.7,4.9,4.2,6.5,7.2c1.7,3.1,2.5,6.6,2.6,10.7
		c0,5.3-1.8,9.8-5.3,13.7c-3.5,3.8-7.9,6.7-13.2,8.5c-5.3,1.8-11,2.7-17.1,2.7c-4.3-0.1-8.4-0.8-12.5-2.1c-4.1-1.3-7.8-3.1-11.2-5.5
		c-3.4-2.3-6.1-5.4-8.2-9.1s-3.1-7.8-3.1-12.4h25.1v2.4c0,1.6,1,2.8,3,3.7c2,0.9,4.3,1.3,7.1,1.3c2.8,0,5.1-0.4,7.2-1.3
		c2-0.9,3-2.1,3-3.7c0-1-0.6-1.9-1.9-2.7c-1.3-0.8-3-1.4-5.1-1.9c-2.1-0.5-4.6-1-7.3-1.6c-2.7-0.6-5.5-1.3-8.3-1.9
		c-2.8-0.7-5.6-1.6-8.3-3c-2.7-1.3-5.1-2.8-7.3-4.5c-2.1-1.7-3.8-4-5.1-6.8c-1.3-2.8-1.9-6-1.9-9.6c0-5.3,1.7-9.9,5.2-13.7
		c3.5-3.9,7.8-6.7,13.1-8.6c5.2-1.8,10.9-2.7,16.8-2.7c4.3,0,8.6,0.6,12.8,1.9c4.2,1.3,8,3.1,11.4,5.5c3.4,2.4,6.2,5.4,8.3,9.2
		c2.1,3.8,3.1,7.9,3.1,12.4h-25.4V157c0-1.6-1-2.9-3-3.8C312.7,152.3,310.3,151.8,307.6,151.8z"/>
</g>
</svg>
