<?xml version="1.0" encoding="utf-8"?>
<!-- Generator: Adobe Illustrator 19.1.0, SVG Export Plug-In . SVG Version: 6.00 Build 0)  -->
<svg version="1.1" id="Layer_1" xmlns="http://www.w3.org/2000/svg" xmlns:xlink="http://www.w3.org/1999/xlink" x="0px" y="0px"
	 viewBox="0 0 270.2 75" style="enable-background:new 0 0 270.2 75;" xml:space="preserve">
<style type="text/css">
	.st0{fill:#FFFFFF;}
</style>
<g>
	<path class="st0" d="M33.9,28.7v-9.2h1.5h1.5h4.9c2.5,0,4.6-2.1,4.6-4.6c0-2.5-2.1-4.6-4.6-4.6h-3h-1.9h-3.1V7.2h1.5h1.5h4.9
		c4.2,0,7.7,3.5,7.7,7.7c0,3-1.7,5.5-4.2,6.8c-1,0.5-2.2,0.8-3.5,0.8h-0.4h-2.7h-1.7v6.1H33.9z"/>
	<path class="st0" d="M55.9,19.4h1.5h4.9c2.5,0,4.6-2.1,4.6-4.6c0-2.5-2.1-4.6-4.6-4.6h-4.9h-3.1V7.2h1.5h1.5h4.9
		c4.2,0,7.7,3.5,7.7,7.7c0,3-1.7,5.5-4.2,6.8c0,0,0,0,0,0l1.5,2.5l2.7,4.5h-3.6l-3.2-5.4l0,0c0,0,0,0,0,0c-0.3-0.5-0.8-0.7-1.3-0.7
		h-2.7h-1.7h-3.1v-3.1H55.9z"/>
	<path class="st0" d="M85.6,28.6c-5.9,0-10.7-4.8-10.7-10.7c0-5.9,4.8-10.7,10.7-10.7S96.3,12,96.3,17.9
		C96.3,23.8,91.5,28.6,85.6,28.6z M85.6,25.6c4.2,0,7.7-3.4,7.7-7.7c0-4.2-3.4-7.7-7.7-7.7s-7.7,3.4-7.7,7.7
		C77.9,22.1,81.3,25.6,85.6,25.6z"/>
	<path class="st0" d="M101.2,10.2V7.2h17.4v3.1h-7.2v18.4h-3.1V10.2H101.2z"/>
	<path class="st0" d="M123.4,7.2h14.9v3.1h-14.9V7.2z M123.4,16.4h14.9v3.1h-14.9V16.4z M138.3,28.7h-14.9v-3.1h14.9V28.7z"/>
	<path class="st0" d="M153.8,7.2h4.1v3.1h-4.1c-4.2,0-7.7,3.5-7.7,7.7c0,4.2,3.5,7.7,7.7,7.7h4.1v3.1h-4.1
		c-5.9,0-10.7-4.8-10.7-10.7C143.1,12,147.9,7.2,153.8,7.2z"/>
	<path class="st0" d="M162.8,10.2V7.2h17.4v3.1H173v18.4H170V10.2H162.8z"/>
	<path class="st0" d="M188.1,7.2v21.5H185V7.2H188.1z"/>
	<path class="st0" d="M193,28.7V16.6c0-5.2,4.2-9.4,9.4-9.4s9.4,4.2,9.4,9.4v12.1h-3.1v-12c0-3.5-2.9-6.4-6.4-6.4s-6.4,2.9-6.4,6.4
		v12H193z"/>
	<path class="st0" d="M226.6,7.2c0.3,0,0.5,0,0.8,0v3.1c-0.2,0-0.4,0-0.6,0c-4,0.3-7.1,3.6-7.1,7.7c0,4.2,3.4,7.7,7.7,7.7
		c2.3,0,4.4-1,5.9-2.7v-3.3v-0.1h-5.9v-3.1h8.9v3.1v4.4c-2,3-5.3,4.8-8.9,4.8c-5.9,0-10.7-4.8-10.7-10.7
		C216.7,12.3,221,7.6,226.6,7.2z"/>
</g>
<g>
	<path class="st0" d="M2.4,53.2v-3.1h17.4v3.1h-7.2v18.4H9.6V53.2H2.4z"/>
	<path class="st0" d="M27.7,71.6h-3.1v-5.4v-3.8V50.1h3.1v9.2H39v-9.2h3.1v21.5H39v-9.2H27.7v3.8V71.6z"/>
	<path class="st0" d="M46.9,50.1h14.9v3.1H46.9V50.1z M46.9,59.4h14.9v3.1H46.9V59.4z M61.8,71.6H46.9v-3.1h14.9V71.6z"/>
	<path class="st0" d="M93,50.2c0.3,0,0.5,0,0.8,0c3,0,5.6,1.2,7.6,3.1l-2.2,2.2c-1.4-1.4-3.3-2.2-5.4-2.2c-1.9,0-3.7,0.7-5,1.9
		c-1.6,1.4-2.7,3.5-2.7,5.8c0,4.2,3.4,7.7,7.7,7.7c2.3,0,4.4-1,5.9-2.7v-3.3v-0.1h-5.9v-3.1h8.9v3.1v4.4c-2,3-5.3,4.8-8.9,4.8
		c-5.9,0-10.7-4.8-10.7-10.7C83,55.3,87.4,50.6,93,50.2z"/>
	<path class="st0" d="M107.6,71.6l6.9-17.7c0.9-2.3,3.1-3.8,5.6-3.8c2.5,0,4.7,1.5,5.6,3.8l6.9,17.7h-3.3l-6.5-16.6
		c-0.5-1.2-1.5-1.9-2.7-1.9s-2.3,0.7-2.7,1.9l-6.5,16.6H107.6z"/>
	<path class="st0" d="M137.4,53.2v-3.1h17.4v3.1h-7.2v18.4h-3.1V53.2H137.4z"/>
	<path class="st0" d="M159.6,50.1h14.9v3.1h-14.9V50.1z M159.6,59.4h14.9v3.1h-14.9V59.4z M174.5,71.6h-14.9v-3.1h14.9V71.6z"/>
	<path class="st0" d="M194.6,66.7l0.6-1.4l-5.9-15.1h3.3l6.5,16.6c0.5,1.2,1.5,1.9,2.7,1.9s2.3-0.7,2.7-1.9l6.5-16.6h3.3l-6.9,17.7
		c-0.9,2.3-3.1,3.8-5.6,3.8c-2,0-3.8-1-4.9-2.6c-1.1,1.6-2.9,2.6-4.9,2.6c-2.5,0-4.7-1.5-5.6-3.8l-6.9-17.7h3.3l6.5,16.6
		c0.5,1.2,1.5,1.9,2.7,1.9S194.1,67.9,194.6,66.7z"/>
	<path class="st0" d="M219.1,71.6L226,54c0.9-2.3,3.1-3.8,5.6-3.8c2.5,0,4.7,1.5,5.6,3.8l6.9,17.7h-3.3l-6.5-16.6
		c-0.5-1.2-1.5-1.9-2.7-1.9s-2.3,0.7-2.7,1.9l-6.5,16.6H219.1z"/>
	<path class="st0" d="M264.7,50.1h3.1V56c0,4.7-3.4,8.6-7.9,9.3v6.3h-3.1v-6.3c-4.5-0.7-7.9-4.6-7.9-9.3v-5.9h3.1V56
		c0,3.5,2.9,6.4,6.4,6.4c3.5,0,6.4-2.9,6.4-6.4V50.1z"/>
</g>
</svg>
