<?xml version="1.0" encoding="utf-8"?>
<!-- Generator: Adobe Illustrator 19.1.0, SVG Export Plug-In . SVG Version: 6.00 Build 0)  -->
<svg version="1.1" id="Layer_1" xmlns="http://www.w3.org/2000/svg" xmlns:xlink="http://www.w3.org/1999/xlink" x="0px" y="0px"
	 viewBox="0 0 225.8 75" style="enable-background:new 0 0 225.8 75;" xml:space="preserve">
<style type="text/css">
	.st0{fill:#FFFFFF;}
</style>
<g>
	<g>
		<path class="st0" d="M73.7,21.1c0.6,1.3,1.8,2.2,3.2,2.5c0.3,0.1,0.6,0.1,0.9,0.1c2.6,0,4.7-2.1,4.7-4.7c0-1.1-0.3-2.1-1-3
			c-0.9-1.1-2.1-1.9-3.3-2.6c-1.2-0.7-2.4-1.5-3.4-2.6c-1.3-1.6-1.7-3.5-1.8-5.5h3.1c0,1.8,0.5,3.2,2,4.3c1,0.7,2,1.3,3,2
			c1.1,0.7,2.1,1.5,2.9,2.5c1.1,1.4,1.6,3.1,1.6,4.9c0,1.5-0.4,3-1.3,4.2c-1.4,2.2-3.9,3.5-6.5,3.5c-2.9,0-5.5-1.6-6.9-4.2l0,0
			L73.7,21.1L73.7,21.1z"/>
		<path class="st0" d="M90.5,26.7l6.9-17.7c0.9-2.3,3.1-3.8,5.6-3.8c2.5,0,4.7,1.5,5.6,3.8l6.9,17.7h-3.3l-6.5-16.6
			c-0.5-1.2-1.5-1.9-2.7-1.9s-2.3,0.7-2.7,1.9l-6.5,16.6H90.5z"/>
		<path class="st0" d="M120.3,5.2h14.9v3.1h-14.9V5.2z M135.2,14.5v3.1h-11.8v9.2h-3.1V14.5H135.2z"/>
		<path class="st0" d="M140,5.2h14.9v3.1H140V5.2z M140,14.5h14.9v3.1H140V14.5z M154.9,26.7H140v-3.1h14.9V26.7z"/>
	</g>
	<g>
		<path class="st0" d="M2.4,69.7v-12c0-5.2,4.2-9.4,9.4-9.4c5.2,0,9.4,4.2,9.4,9.4v12h-3.1v-12c0-3.5-2.9-6.4-6.4-6.4
			c-3.5,0-6.4,2.9-6.4,6.4v12H2.4z"/>
		<path class="st0" d="M26.1,69.7L33,52c0.9-2.3,3.1-3.8,5.6-3.8c2.5,0,4.7,1.5,5.6,3.8l6.9,17.7h-3.3l-6.5-16.6
			c-0.5-1.2-1.5-1.9-2.7-1.9s-2.3,0.7-2.7,1.9l-6.5,16.6H26.1z"/>
		<path class="st0" d="M65.7,64.8c0.5,1.2,1.5,1.9,2.7,1.9s2.3-0.7,2.7-1.9l6.5-16.6H81l-6.9,17.7c-0.9,2.3-3.1,3.8-5.6,3.8
			c-2.5,0-4.7-1.5-5.6-3.8L56,48.2h3.3L65.7,64.8z"/>
		<path class="st0" d="M88.9,48.2v21.5h-3.1V48.2H88.9z"/>
		<path class="st0" d="M103.6,48.3c0.3,0,0.5,0,0.8,0v3.1c-0.2,0-0.4,0-0.6,0c-4,0.3-7.1,3.6-7.1,7.7c0,4.2,3.4,7.7,7.7,7.7
			c2.3,0,4.4-1,5.9-2.7v-3.3v-0.1h-5.9v-3.1h8.9v3.1v4.4c-2,3-5.3,4.8-8.9,4.8c-5.9,0-10.7-4.8-10.7-10.7
			C93.7,53.3,98,48.7,103.6,48.3z"/>
		<path class="st0" d="M118.2,69.7l6.9-17.7c0.9-2.3,3.1-3.8,5.6-3.8s4.7,1.5,5.6,3.8l6.9,17.7H140l-6.5-16.6
			c-0.5-1.2-1.5-1.9-2.7-1.9s-2.3,0.7-2.7,1.9l-6.5,16.6H118.2z"/>
		<path class="st0" d="M148.1,51.3v-3.1h17.4v3.1h-7.2v18.4h-3.1V51.3H148.1z"/>
		<path class="st0" d="M173.4,48.2v21.5h-3.1V48.2H173.4z"/>
		<path class="st0" d="M189,69.7c-5.9,0-10.7-4.8-10.7-10.7S183,48.2,189,48.2c5.9,0,10.7,4.8,10.7,10.7S194.9,69.7,189,69.7z
			 M189,66.6c4.2,0,7.7-3.4,7.7-7.7c0-4.2-3.4-7.7-7.7-7.7c-4.2,0-7.7,3.4-7.7,7.7C181.3,63.2,184.7,66.6,189,66.6z"/>
		<path class="st0" d="M204.6,69.7v-12c0-5.2,4.2-9.4,9.4-9.4s9.4,4.2,9.4,9.4v12h-3.1v-12c0-3.5-2.9-6.4-6.4-6.4
			c-3.5,0-6.4,2.9-6.4,6.4v12H204.6z"/>
	</g>
</g>
</svg>
