<?xml version="1.0" encoding="utf-8"?>
<!-- Generator: Adobe Illustrator 19.1.0, SVG Export Plug-In . SVG Version: 6.00 Build 0)  -->
<svg version="1.1" id="Layer_1" xmlns="http://www.w3.org/2000/svg" xmlns:xlink="http://www.w3.org/1999/xlink" x="0px" y="0px"
	 viewBox="0 0 261.3 75" style="enable-background:new 0 0 261.3 75;" xml:space="preserve">
<style type="text/css">
	.st0{fill:#6E6E6E;}
</style>
<g>
	<g>
		<path class="st0" d="M10.6,26.7v-12c0-5.2,4.2-9.4,9.4-9.4c5.2,0,9.4,4.2,9.4,9.4v12h-3.1v-12c0-3.5-2.9-6.4-6.4-6.4
			c-3.5,0-6.4,2.9-6.4,6.4v12H10.6z"/>
		<path class="st0" d="M34.4,5.2h14.9v3.1H34.4V5.2z M34.4,14.5h14.9v3.1H34.4V14.5z M49.2,26.7H34.4v-3.1h14.9V26.7z"/>
		<path class="st0" d="M57.1,17.3c0,3.5,2.9,6.4,6.4,6.4c3.5,0,6.4-2.9,6.4-6.4v-12h3.1v12c0,5.2-4.2,9.4-9.4,9.4
			c-5.2,0-9.4-4.2-9.4-9.4v-12h3.1V17.3z"/>
		<path class="st0" d="M77.8,8.3V5.2h17.4v3.1H88v18.4h-3.1V8.3H77.8z"/>
		<path class="st0" d="M101.5,17.5h1.5h4.9c2.5,0,4.6-2.1,4.6-4.6s-2.1-4.6-4.6-4.6h-4.9H100V5.2h1.5h1.5h4.9c4.2,0,7.7,3.5,7.7,7.7
			c0,3-1.7,5.5-4.2,6.8c0,0,0,0,0,0l1.5,2.5l2.7,4.5h-3.6l-3.2-5.4l0,0c0,0,0,0,0,0c-0.3-0.5-0.8-0.7-1.3-0.7h-2.7h-1.7H100v-3.1
			H101.5z"/>
		<path class="st0" d="M120.5,26.7l6.9-17.7c0.9-2.3,3.1-3.8,5.6-3.8c2.5,0,4.7,1.5,5.6,3.8l6.9,17.7h-3.3l-6.5-16.6
			c-0.5-1.2-1.5-1.9-2.7-1.9s-2.3,0.7-2.7,1.9l-6.5,16.6H120.5z"/>
		<path class="st0" d="M150.3,20.4V5.2h3.1v15.1c0,1.8,1.4,3.2,3.2,3.3h8.7v3.1h-5.5h-3.1C153.2,26.7,150.3,23.9,150.3,20.4z"/>
		<path class="st0" d="M173.1,5.2v21.5H170V5.2H173.1z"/>
		<path class="st0" d="M177.9,23.7v-1.1v0c0-2.2,1.1-4.1,3-5.3l3-1.7l4.6-2.7l1.4-0.8c1-0.6,1.5-1.5,1.5-2.6V8.3h-13.5V5.2h16.6v3.1
			v1.1v0c0,2.2-1.1,4.1-3,5.3l-3,1.7l-4.6,2.7l-1.4,0.8c-1,0.6-1.5,1.5-1.5,2.6v1.1h13.5v3.1h-16.6V23.7z"/>
		<path class="st0" d="M202.4,5.2v21.5h-3.1V5.2H202.4z"/>
		<path class="st0" d="M207.3,26.7V14.7c0-5.2,4.2-9.4,9.4-9.4s9.4,4.2,9.4,9.4v12.1h-3.1v-12c0-3.5-2.9-6.4-6.4-6.4
			c-3.5,0-6.4,2.9-6.4,6.4v12H207.3z"/>
		<path class="st0" d="M240.9,5.3c0.3,0,0.5,0,0.8,0v3.1c-0.2,0-0.4,0-0.6,0c-4,0.3-7.1,3.6-7.1,7.7c0,4.2,3.4,7.7,7.7,7.7
			c2.3,0,4.4-1,5.9-2.7v-3.3v-0.1h-5.9v-3.1h8.9v3.1V22c-2,3-5.3,4.8-8.9,4.8c-5.9,0-10.7-4.8-10.7-10.7
			C231,10.4,235.3,5.7,240.9,5.3z"/>
	</g>
	<g>
		<path class="st0" d="M55,51.3v-3.1h17.4v3.1h-7.2v18.4h-3.1V51.3H55z"/>
		<path class="st0" d="M80.3,69.7h-3.1v-5.4v-3.8V48.2h3.1v9.2h11.3v-9.2h3.1v21.5h-3.1v-9.2H80.3v3.8V69.7z"/>
		<path class="st0" d="M101,60.5h1.5h4.9c2.5,0,4.6-2.1,4.6-4.6s-2.1-4.6-4.6-4.6h-4.9h-3.1v-3.1h1.5h1.5h4.9c4.2,0,7.7,3.5,7.7,7.7
			c0,3-1.7,5.5-4.2,6.8c0,0,0,0,0,0l1.5,2.5l2.7,4.5h-3.6l-3.2-5.4l0,0c0,0,0,0,0,0c-0.3-0.5-0.8-0.7-1.3-0.7h-2.7h-1.7h-3.1v-3.1
			H101z"/>
		<path class="st0" d="M119.9,48.2h14.9v3.1h-14.9V48.2z M119.9,57.4h14.9v3.1h-14.9V57.4z M134.8,69.7h-14.9v-3.1h14.9V69.7z"/>
		<path class="st0" d="M139.6,69.7l6.9-17.7c0.9-2.3,3.1-3.8,5.6-3.8s4.7,1.5,5.6,3.8l6.9,17.7h-3.3l-6.5-16.6
			c-0.5-1.2-1.5-1.9-2.7-1.9s-2.3,0.7-2.7,1.9l-6.5,16.6H139.6z"/>
		<path class="st0" d="M169.5,51.3v-3.1h17.4v3.1h-7.2v18.4h-3.1V51.3H169.5z"/>
		<path class="st0" d="M194.4,64.1c0.6,1.3,1.8,2.2,3.2,2.5c0.3,0.1,0.6,0.1,0.9,0.1c2.6,0,4.7-2.1,4.7-4.7c0-1.1-0.3-2.1-1-3
			c-0.9-1.1-2.1-1.9-3.3-2.6c-1.2-0.7-2.4-1.5-3.4-2.6c-1.3-1.6-1.7-3.5-1.8-5.5h3.1c0,1.8,0.5,3.2,2,4.3c1,0.7,2,1.3,3,2
			c1.1,0.7,2.1,1.5,2.9,2.5c1.1,1.4,1.6,3.1,1.6,4.9c0,1.5-0.4,3-1.3,4.2c-1.4,2.2-3.9,3.5-6.5,3.5c-2.9,0-5.5-1.6-6.9-4.2l0,0
			L194.4,64.1L194.4,64.1z"/>
	</g>
</g>
</svg>
